<?xml version="1.0" encoding="UTF-8"?><svg xmlns="http://www.w3.org/2000/svg" xmlns:xlink="http://www.w3.org/1999/xlink" viewBox="0 0 1217.33333 1194.66667"><defs><style>.cls-1{stroke:#b61f24;}.cls-1,.cls-2,.cls-3,.cls-4,.cls-5,.cls-6,.cls-7,.cls-8,.cls-9,.cls-10,.cls-11,.cls-12,.cls-13{stroke-miterlimit:10;}.cls-1,.cls-11{fill:#b61f24;}.cls-2,.cls-14,.cls-3,.cls-15,.cls-16,.cls-6,.cls-9,.cls-17,.cls-10,.cls-11,.cls-12{stroke:#fff;}.cls-2,.cls-5,.cls-18{fill:#cfddf1;}.cls-19,.cls-14,.cls-3,.cls-4,.cls-20,.cls-15,.cls-16,.cls-8,.cls-17{fill:#0c1426;}.cls-19,.cls-4,.cls-18,.cls-21{stroke-width:0px;}.cls-14{stroke-width:3.12081px;}.cls-14,.cls-20,.cls-15,.cls-16,.cls-17{stroke-linecap:round;stroke-linejoin:round;}.cls-4,.cls-5,.cls-7,.cls-13{stroke:#0c1426;}.cls-20{stroke-width:.75614px;}.cls-20,.cls-8{stroke:#cfddf1;}.cls-15{stroke-width:2.53059px;}.cls-5{stroke-width:2.68457px;}.cls-16{stroke-width:2.57882px;}.cls-6{filter:url(#drop-shadow-2);}.cls-6,.cls-10,.cls-12{fill:none;}.cls-7{stroke-width:11.63314px;}.cls-7,.cls-21,.cls-9,.cls-13{fill:#fff;}.cls-17{stroke-width:2.513px;}.cls-10{filter:url(#drop-shadow-3);}.cls-11{font-family:Rockwell-Bold, Rockwell;font-size:36.58699px;font-weight:700;letter-spacing:.014em;opacity:.97;stroke-width:.75px;}.cls-12{filter:url(#drop-shadow-1);}.cls-13{stroke-width:2px;}</style><filter id="drop-shadow-1" filterUnits="userSpaceOnUse"><feOffset dx="0" dy="0"/><feGaussianBlur result="blur" stdDeviation="9"/><feFlood flood-color="#231f20" flood-opacity=".55"/><feComposite in2="blur" operator="in"/><feComposite in="SourceGraphic"/></filter><filter id="drop-shadow-2" filterUnits="userSpaceOnUse"><feOffset dx="0" dy="0"/><feGaussianBlur result="blur-2" stdDeviation="9"/><feFlood flood-color="#231f20" flood-opacity=".55"/><feComposite in2="blur-2" operator="in"/><feComposite in="SourceGraphic"/></filter><filter id="drop-shadow-3" filterUnits="userSpaceOnUse"><feOffset dx="0" dy="0"/><feGaussianBlur result="blur-3" stdDeviation="9"/><feFlood flood-color="#231f20" flood-opacity=".55"/><feComposite in2="blur-3" operator="in"/><feComposite in="SourceGraphic"/></filter></defs><g id="gear"><path class="cls-19" d="M897.05663,822.85731c8.5483-32.27556,7.38746-27.89256,15.93576-60.16812l-45.77773-25.25629c-.07276-25.17022-.08939-30.91917-.16215-56.08945l45.63079-25.5206c-8.73473-32.22555-7.54857-27.84936-16.28335-60.07491l-52.27274,1.01619c-12.64814-21.76168-15.53704-26.73209-28.18519-48.49377l26.75718-44.91693c-23.6773-23.54078-20.46195-20.34394-44.13926-43.88472l-44.76142,27.01645c-21.8345-12.52208-26.82153-15.38219-48.65597-27.90427l.71391-52.27777c-32.27556-8.54824-27.89256-7.38741-60.16812-15.93565l-25.25629,45.77767c-25.17022.07276-30.91917.08939-56.08945.16215l-25.52059-45.63084c-32.22555,8.73478-27.84936,7.54862-60.07491,16.28335l1.01625,52.27279c-21.76168,12.64814-26.73214,15.53699-48.49382,28.18519l-44.91687-26.75718c-23.54078,23.6773-20.34399,20.46195-43.88477,44.13926l27.01645,44.76142c-12.52208,21.83444-15.38219,26.82153-27.90427,48.65597l-52.27772-.71391c-8.5483,32.27551-7.38746,27.89256-15.9357,60.16807l45.77767,25.25629c.07276,25.17028.08939,30.91923.16215,56.08945l-45.63079,25.5206c8.73473,32.2256,7.54857,27.84941,16.28335,60.07496l52.27274-1.01625c12.64814,21.76168,15.53704,26.73214,28.18519,48.49382l-26.75718,44.91687c23.6773,23.54078,20.46195,20.34399,44.13926,43.88477l44.76142-27.01651c21.83444,12.52214,26.82153,15.38219,48.65597,27.90432l-.71391,52.27772c32.27551,8.54824,27.89256,7.38741,60.16812,15.9357l25.25623-45.77767c25.17028-.07276,30.91923-.08939,56.08951-.16221l25.52054,45.63084c32.2256-8.73478,27.84941-7.54857,60.07496-16.28335l-1.01625-52.27274c21.76168-12.64814,26.73214-15.53704,48.49382-28.18519l44.91687,26.75718c23.54078-23.6773,20.34399-20.46201,43.88477-44.13931l-27.01645-44.76137c12.52208-21.8345,15.38213-26.82153,27.90427-48.65603l52.27772.71397ZM731.80144,854.19249c-38.46669,37.02784-89.05069,56.85924-142.43326,55.84121-53.38257-1.01803-103.17368-22.76364-140.20106-61.23119-37.0274-38.46668-56.8588-89.05111-55.84076-142.43369,1.01803-53.38257,22.76363-103.17324,61.23075-140.20064,38.46711-37.02739,89.05111-56.8588,142.43369-55.84076,53.38257,1.01803,103.17368,22.76364,140.20064,61.23075,37.02783,38.46712,56.85924,89.05069,55.84121,142.43326-1.01803,53.38257-22.76365,103.17411-61.23119,140.20106Z"/><path class="cls-13" d="M540.56098,1033.85337l-63.97725-16.92543.72171-52.8875-46.45306-26.61072-45.33588,27.33017-46.93416-46.60919,27.09983-45.44018-26.90963-46.24479-52.94384,1.02698-17.31583-63.80383,46.21602-25.81672-.15604-53.48746-46.36596-25.55164,16.94322-63.90205,52.94914.72322,26.63919-46.39783-27.36403-45.28389,46.6614-46.87748,45.49432,27.06986,46.29747-26.87627-1.03053-52.88228,63.87692-17.29286,25.84931,46.1634,53.55021-.15347,25.57889-46.31089,63.97724,16.92635-.72216,52.88704,46.45351,26.61119,45.33543-27.33064,46.93508,46.60921-27.10029,45.44017,26.91009,46.2448,52.94384-1.02698,17.31492,63.80335-46.21557,25.81765.15512,53.48744,46.36596,25.55164-16.94229,63.90115-52.94915-.72276-26.63965,46.39737,27.36403,45.28389-46.66142,46.8784-45.49338-27.07076-46.29749,26.87765,1.03054,52.88136-63.8783,17.29284-25.84884-46.16385-53.54975.15348-25.57889,46.31089ZM481.18376,1014.40033l56.76531,15.07151,25.10269-45.61712,58.99782-.17376,25.36076,45.46774,56.67905-15.40627-1.00729-52.08768,51.00914-29.72829,44.63802,26.66011,41.40547-41.75528-26.8474-44.60191,29.3542-51.316,51.9549.70872,15.03739-56.91636-45.49399-25.16507-.16826-59.1542,45.35103-25.43255-15.35891-56.82724-51.951,1.0152-29.64362-51.14224,26.59415-44.75902-41.64072-41.511-44.48672,26.92352-51.1783-29.42684.71302-52.09266-56.76531-15.07151-25.10269,45.61712-58.99828.17375-25.36029-45.4682-56.67859,15.40627,1.00729,52.08768-51.01005,29.72782-44.63802-26.66011-41.40549,41.7562,26.84742,44.60099-29.35375,51.31647-51.9549-.70918-15.03741,56.91728,45.494,25.16461.16733,59.15464-45.35057,25.43256,15.35983,56.82679,51.95009-1.01522,29.6441,51.14133-26.59462,44.75993,41.64164,41.51102,44.48626-26.92307,51.17784,29.42683-.71256,52.09267ZM587.90127,914.00488c-54.14335-1.03254-104.64244-23.14359-142.19562-62.26097-37.5532-39.11646-57.6643-90.55535-56.62901-144.84277,1.03527-54.2865,23.09297-104.92167,62.11028-142.57835,39.01731-37.65668,90.32317-57.82625,144.46606-56.79372,54.14335,1.03254,104.6429,23.1436,142.19471,62.26049,37.55365,39.11693,57.66474,90.55628,56.62947,144.84277-1.03529,54.28742-23.093,104.92305-62.11073,142.57834-39.01594,37.65717-90.3218,57.82674-144.46515,56.7942ZM595.56299,512.2472c-52.88606-1.00856-103.00064,18.69285-141.11266,55.47491-38.11112,36.783-59.65682,86.2429-60.66805,139.26878-1.01125,53.0268,18.63302,103.27222,55.31402,141.48062,36.68146,38.20841,86.00889,59.80669,138.89495,60.81526s103.00065-18.69331,141.11175-55.47539h0c38.1111-36.78208,59.65726-86.24197,60.66851-139.26877,1.01124-53.02634-18.63349-103.27176-55.31448-141.48063-36.681-38.2084-86.00798-59.80621-138.89404-60.81478Z"/></g><g id="wrench"><path class="cls-1" d="M719.47291,695.07475c7.73307,9.33446,15.46753,18.66789,23.20162,28.00146,11.25926-11.52939,22.86641-22.71866,34.82958-33.51614,10.911-9.84776,22.10349-19.39013,33.57829-28.57522,4.49914-3.60138,9.07803-6.7972,14.43748-8.68873-1.00696-.19978-2.00549-.44104-2.99024-.73814-1.92561-.58087-3.80783-1.34606-5.59705-2.26463-1.7292-.88772-3.54832-1.89593-4.86419-3.35228-.99751-1.10399.39252-2.39618,1.55676-1.83503,1.62733.78439,3.08127,1.90494,4.68837,2.73858,1.63349.84727,3.33564,1.53873,5.09299,2.08376,1.75756.54511,3.5665.94533,5.39024,1.19186.92568.1251,1.85731.16988,2.78453.27277.43085.04778.88574.08084,1.33074.14613,5.2005-.80161,10.48989-1.01905,15.67332-1.95045,6.09049-1.09446,11.70623-3.44433,16.42986-7.49533,4.41919-3.78995,7.8773-8.58642,10.30814-13.86335,5.68764-12.34705,4.9256-26.50451,1.75045-39.4435-.5539.57875-1.13763,1.13345-1.66801,1.69373-1.13169,1.1956-2.2543,2.39977-3.38533,3.59603-2.20542,2.33279-4.38768,4.68764-6.54604,7.06403-4.44609,4.89533-8.76069,9.89334-13.05039,14.92381-.82609.96878-2.04125.29674-2.30399-.6664-3.94085-3.73374-8.16649-7.229-12.20964-10.8619-3.65913-3.28786-7.56465-6.51878-10.85552-10.18458-1.5152-1.68787-.9517-3.13902.40696-4.69944,1.6203-1.86104,3.28075-3.68911,4.94634-5.50955,3.46602-3.78841,7.02123-7.49826,10.65376-11.12712,3.17896-3.17566,6.36524-6.42343,9.73577-9.41419-13.48783-3.2126-28.29058-3.58475-40.5255,3.72978-10.11467,6.04689-17.64128,16.2119-19.3537,27.97867-.56101,3.85481-.6266,7.75608-.81062,11.64475.07431.63554-.03716,1.31396-.05768,1.94481-.03254.99795-.03422,1.99662.00711,2.99435.0834,2.01678.30817,4.0208.71601,5.99822.41935,2.03341,1.00755,4.03758,1.71044,5.99046.65614,1.82286,1.66427,3.51315,2.23583,5.35704.23474.75727-.70451,1.74356-1.3975,1.03649-1.56504-1.59706-2.50355-3.77991-3.35397-5.82739-.68926-1.65965-1.22645-3.37588-1.64323-5.12274-1.60337,5.25187-4.45012,10.05267-7.80672,14.38501-4.38079,5.65429-9.60767,10.59015-14.89743,15.37856-5.57946,5.05077-11.21719,10.03867-16.86789,15.00956-11.13628,9.79653-22.38316,19.46722-33.72706,29.02242.81568.98468,1.63144,1.96921,2.44712,2.95382Z"/><path class="cls-1" d="M738.28341,721.93c1.11975,1.35082,2.2395,2.70164,3.35924,4.05254.45137.54452,1.41106.49872,1.87966.01693,20.91273-21.50122,43.09764-41.7587,66.40883-60.63332,5.66074-4.58342,11.24804-9.23075,18.42663-11.1398,6.68045-1.77662,13.66761-1.75844,20.45579-2.91315,6.15938-1.04778,11.86102-3.3056,16.79849-7.17301,4.57602-3.58423,8.305-8.20635,11.02657-13.33371,7.47055-14.07442,6.73248-30.87972,2.58827-45.84458-.35104-1.26786-1.87768-1.1901-2.4801-.37325-1.11997.76116-2.05203,1.8584-2.99318,2.80498-1.17002,1.17676-2.33836,2.35551-3.48537,3.55477-2.28684,2.39083-4.54685,4.80754-6.78291,7.24593-4.3086,4.69863-8.54567,9.48894-12.62649,14.38823-1.66867-1.79824-3.29929-3.60776-5.09035-5.30479-2.18028-2.06581-4.39325-4.09548-6.60416-6.12824-2.19611-2.01912-4.39068-4.04118-6.54487-6.10508-1.0565-1.01224-2.10912-2.03048-3.13455-3.0743-.68245-.69468-.71696-.6362-.10026-1.39758.41729-.51513.88853-.99516,1.33191-1.48823,4.00248-4.45114,8.09913-8.81493,12.25772-13.1203,4.20981-4.35843,8.68873-8.46242,12.87464-12.83763.18644-.19487.27197-.40674.31762-.61891.27886-.52569.19055-1.21509-.55295-1.44389-12.29113-3.78306-26.49967-4.95088-38.66519-.07101-10.84409,4.34979-19.97085,13.15445-24.35948,24.01598-2.5942,6.4205-2.84177,13.2111-3.15507,20.03996-.1679,3.66023-.4063,7.33124-1.28948,10.90008-.80454,3.25122-2.13118,6.32626-3.7994,9.22467-3.56071,6.18642-8.52215,11.44834-13.64672,16.36023-5.43736,5.21164-11.13101,10.16545-16.76448,15.16251-13.08659,11.60825-26.32539,23.04391-39.70682,34.31086-.58431.49197-.44419,1.36826-.01378,1.88735,8.02409,9.67802,16.04715,19.35685,24.07022,29.03576ZM767.62074,648.08895c5.28976-4.78841,10.51664-9.72427,14.89743-15.37856,3.3566-4.33234,6.20335-9.13314,7.80672-14.38501.41678,1.74686.95397,3.46309,1.64323,5.12274.85042,2.04748,1.78893,4.23033,3.35397,5.82739.693.70707,1.63224-.27922,1.3975-1.03649-.57156-1.84389-1.5797-3.53418-2.23583-5.35704-.70289-1.95287-1.29109-3.95704-1.71044-5.99046-.40784-1.97742-.63261-3.98145-.71601-5.99822-.04133-.99773-.03965-1.9964-.00711-2.99435.02052-.63085.13199-1.30927.05768-1.94481.18402-3.88867.24961-7.78994.81062-11.64475,1.71242-11.76677,9.23904-21.93178,19.3537-27.97867,12.23492-7.31453,27.03767-6.94238,40.5255-3.72978-3.37053,2.99076-6.55682,6.23853-9.73577,9.41419-3.63253,3.62886-7.18774,7.33871-10.65376,11.12712-1.66559,1.82044-3.32604,3.64851-4.94634,5.50955-1.35866,1.56042-1.92216,3.01157-.40696,4.69944,3.29087,3.6658,7.19639,6.89672,10.85552,10.18458,4.04315,3.6329,8.26879,7.12816,12.20964,10.8619.26273.96313,1.4779,1.63517,2.30399.6664,4.28969-5.03047,8.6043-10.02848,13.05039-14.92381,2.15837-2.3764,4.34063-4.73124,6.54604-7.06403,1.13103-1.19626,2.25364-2.40043,3.38533-3.59603.53038-.56028,1.1141-1.11498,1.66801-1.69373,3.17515,12.93899,3.93718,27.09644-1.75045,39.4435-2.43085,5.27694-5.88895,10.07341-10.30814,13.86335-4.72362,4.051-10.33936,6.40086-16.42986,7.49533-5.18342.9314-10.47282,1.14884-15.67332,1.95045-.445-.0653-.89989-.09835-1.33074-.14613-.92722-.10289-1.85884-.14767-2.78453-.27277-1.82374-.24654-3.63268-.64676-5.39024-1.19186-1.75734-.54503-3.4595-1.23649-5.09299-2.08376-1.6071-.83364-3.06104-1.95419-4.68837-2.73858-1.16423-.56116-2.55426.73103-1.55676,1.83503,1.31586,1.45635,3.13499,2.46456,4.86419,3.35228,1.78922.91858,3.67144,1.68376,5.59705,2.26463.98475.2971,1.98329.53836,2.99024.73814-5.35946,1.89153-9.93834,5.08734-14.43748,8.68873-11.47479,9.1851-22.66729,18.72747-33.57829,28.57522-11.96318,10.79748-23.57033,21.98675-34.82958,33.51614-7.73409-9.33358-15.46855-18.66701-23.20162-28.00146-.81568-.98461-1.63144-1.96914-2.44712-2.95382,11.3439-9.5552,22.59078-19.22589,33.72706-29.02242,5.6507-4.97089,11.28843-9.95879,16.86789-15.00956Z"/><path class="cls-21" d="M852.29361,562.17619c-15.98001-2.86955-36.15942-3.06847-48.08934,9.57526-2.12853,2.47958-3.98462,5.50037-5.35157,8.4512-2.79593,5.95247-4.35326,13.34353-4.0818,19.50864.26899,3.5354,1.26001,7.19665,1.28656,11.18933.03314,3.9697-1.11688,8.07767-3.37598,11.35855-8.58736,12.3584-19.57432,22.74825-30.66068,32.78558-5.55166,4.97488-11.16092,9.88115-16.89423,14.64574-.15023.12431-.37282.10337-.49715-.04684-.11847-.14313-.10364-.35327.02783-.48022,13.25413-12.95778,27.23482-25.32331,38.95195-39.71041,4.21148-5.54317,9.81314-11.06554,9.46943-18.53235-.02668-4.26528-1.54706-9.12462-1.27654-13.75422.32178-8.07672,2.77662-16.05635,7.15219-22.86102,7.2858-11.83162,22.22158-15.64045,35.31065-15.339,6.12152.09362,12.26655,1.01714,18.18455,2.52155.18941.0455.30605.23602.26051.42544-.04498.18701-.23084.3019-.41638.26276h0Z"/><path class="cls-21" d="M818.31143,639.49455c14.00328,12.24779,35.62613,10.99477,47.8055-2.99294,9.08729-9.97418,12.71082-23.85003,12.3203-37.1466-.08453-4.48194-.66619-9.08198-1.68585-13.4192-.08164-.19817.01113-.45697.23676-.50379.17333-.0418.34765.05403.40807.21721,3.62211,10.46696,4.15723,21.95219,1.51127,32.71157-2.99017,11.96305-10.60413,23.30196-21.96112,28.68225-8.59702,4.00788-18.87617,4.46766-27.6146.76078-4.3219-1.83001-8.29102-4.4508-11.50354-7.79498-.27361-.33377.12092-.79005.48322-.51428h0Z"/><path class="cls-21" d="M764.30032,694.83939c10.627-13.44224,22.3796-26.05796,35.45573-37.15114,2.21688-1.8242,4.49502-3.58409,6.89413-5.19908,2.46893-1.5553,4.93738-3.28438,7.93507-3.6889.19359-.01691.36424.12616.38127.3197.01562.18463-.10891.33454-.27857.3786,0,0-.94171.33447-.94171.33447-4.65186,2.46414-8.40219,6.28934-12.31154,9.77071-4.13365,3.86253-8.19011,7.82579-12.23759,11.80571-8.09949,7.95923-16.07684,16.06433-24.37231,23.90198-.28505.28432-.80266-.13064-.52448-.47205h0Z"/><path class="cls-21" d="M852.87302,609.96629c4.53165-5.41457,9.35512-10.56827,14.27849-15.62502,1.65926-1.66768,3.32228-3.3318,5.05489-4.93053.09772-.09387.2674.04948.17131.16118-4.5035,5.43886-9.35626,10.56842-14.29322,15.61112-1.65353,1.67304-3.31998,3.33396-5.04007,4.9444-.09776.09516-.26877-.04931-.17139-.16116h0Z"/><path class="cls-21" d="M828.4133,629.8867c3.17932-5.24118,6.31946-10.50681,9.53833-15.72333l.57263.3989c-1.12939,1.44662-2.32697,2.81439-3.58813,4.1376-3.29821,3.26403-9.63532,9.68091-14.38908,5.70516-.27027-.24319-.14011-.72045.21172-.79653,4.39584-1.25427,8.73206-4.01776,10.62839-8.31961.00001,0,.83265.50754.83265.50754-1.8338,2.0147-4.08335,3.54724-6.65093,4.43147-1.27198.45173-2.63313.66044-3.98494.65324-1.36273.04041-2.69287-.29681-3.98059-.68018-.45397-.121-.38792-.82883.07725-.86441,4.48664-.51277,8.89522-3.14974,10.76681-7.37319.00006.00005.59198.3149.59198.3149-1.53486,2.17576-4.06192,3.5544-6.71778,3.54765-2.59683-.03181-5.01631-1.28737-7.07529-2.767-.12518-.08329.00821-.28948.13739-.19085,4.26264,3.07341,9.76864,3.76045,13.10083-.96872.21977-.33517.76199-.02351.57821.33501-1.92106,4.50449-6.48924,7.41039-11.27705,7.98972.00003.00003.11038-.86783.11038-.86783,3.61474,1.26585,7.63185.46856,10.73131-1.71944,1.04376-.71653,2.04226-1.56859,2.85523-2.49416.17914-.203.48895-.22232.69189-.04318.16656.14694.20911.38229.12024.57397-.52551,1.13174-1.13959,2.23505-1.96411,3.17245-2.42692,2.82998-5.78848,4.67449-9.35374,5.67313-.00002-.00003.21171-.79615.21171-.79615,1.2342,1.22231,3.05401,1.23236,4.62684.66463,4.94892-1.99978,8.75124-6.25582,12.15641-10.25297.11886-.15549.34428-.18285.49648-.05943.13947.11255.16962.31033.07605.45819-3.27112,5.1839-6.62091,10.3187-9.93158,15.47791-.08089.12156-.27853.00771-.19952-.12451h0Z"/><path class="cls-1" d="M471.10477,695.07475c-7.73307,9.33446-15.46753,18.66789-23.20162,28.00146-11.25926-11.52939-22.86641-22.71866-34.82958-33.51614-10.911-9.84776-22.10349-19.39013-33.57829-28.57522-4.49914-3.60138-9.07803-6.7972-14.43748-8.68873,1.00696-.19978,2.00549-.44104,2.99024-.73814,1.92561-.58087,3.80783-1.34606,5.59705-2.26463,1.7292-.88772,3.54832-1.89593,4.86419-3.35228.99751-1.10399-.39252-2.39618-1.55676-1.83503-1.62733.78439-3.08127,1.90494-4.68837,2.73858-1.63349.84727-3.33564,1.53873-5.09299,2.08376-1.75756.54511-3.5665.94533-5.39024,1.19186-.92568.1251-1.85731.16988-2.78453.27277-.43085.04778-.88574.08084-1.33074.14613-5.2005-.80161-10.48989-1.01905-15.67332-1.95045-6.09049-1.09446-11.70623-3.44433-16.42986-7.49533-4.41919-3.78995-7.8773-8.58642-10.30814-13.86335-5.68764-12.34705-4.9256-26.50451-1.75045-39.4435.5539.57875,1.13763,1.13345,1.66801,1.69373,1.13169,1.1956,2.2543,2.39977,3.38533,3.59603,2.20542,2.33279,4.38768,4.68764,6.54604,7.06403,4.44609,4.89533,8.76069,9.89334,13.05039,14.92381.82609.96878,2.04125.29674,2.30399-.6664,3.94085-3.73374,8.16649-7.229,12.20964-10.8619,3.65913-3.28786,7.56465-6.51878,10.85552-10.18458,1.5152-1.68787.9517-3.13902-.40696-4.69944-1.6203-1.86104-3.28075-3.68911-4.94634-5.50955-3.46602-3.78841-7.02123-7.49826-10.65376-11.12712-3.17896-3.17566-6.36524-6.42343-9.73577-9.41419,13.48783-3.2126,28.29058-3.58475,40.5255,3.72978,10.11467,6.04689,17.64128,16.2119,19.3537,27.97867.56101,3.85481.6266,7.75608.81062,11.64475-.07431.63554.03716,1.31396.05768,1.94481.03254.99795.03422,1.99662-.00711,2.99435-.0834,2.01678-.30817,4.0208-.71601,5.99822-.41935,2.03341-1.00755,4.03758-1.71044,5.99046-.65614,1.82286-1.66427,3.51315-2.23583,5.35704-.23474.75727.70451,1.74356,1.3975,1.03649,1.56504-1.59706,2.50355-3.77991,3.35397-5.82739.68926-1.65965,1.22645-3.37588,1.64323-5.12274,1.60337,5.25187,4.45012,10.05267,7.80672,14.38501,4.38079,5.65429,9.60767,10.59015,14.89743,15.37856,5.57946,5.05077,11.21719,10.03867,16.86789,15.00956,11.13628,9.79653,22.38316,19.46722,33.72706,29.02242-.81568.98468-1.63144,1.96921-2.44712,2.95382Z"/><path class="cls-1" d="M476.36449,692.89425c.43041-.51909.57054-1.39538-.01378-1.88735-13.38142-11.26695-26.62023-22.70261-39.70682-34.31086-5.63348-4.99705-11.32712-9.95087-16.76448-15.16251-5.12457-4.9119-10.08601-10.17381-13.64672-16.36023-1.66823-2.89842-2.99486-5.97345-3.7994-9.22467-.88318-3.56884-1.12158-7.23985-1.28948-10.90008-.3133-6.82886-.56086-13.61946-3.15507-20.03996-4.38863-10.86153-13.51539-19.6662-24.35948-24.01598-12.16552-4.87987-26.37406-3.71205-38.66519.07101-.74349.2288-.8318.91821-.55295,1.44389.04566.21217.13118.42404.31762.61891,4.18592,4.37522,8.66483,8.4792,12.87464,12.83763,4.15858,4.30537,8.25524,8.66916,12.25772,13.1203.44338.49307.91462.9731,1.33191,1.48823.61671.76138.58219.70289-.10026,1.39758-1.02543,1.04382-2.07804,2.06207-3.13455,3.0743-2.15419,2.0639-4.34876,4.08595-6.54487,6.10508-2.21091,2.03275-4.42388,4.06243-6.60416,6.12824-1.79105,1.69703-3.42168,3.50655-5.09035,5.30479-4.08082-4.89929-8.3179-9.6896-12.62649-14.38823-2.23605-2.4384-4.49607-4.8551-6.78291-7.24593-1.14701-1.19926-2.31535-2.37801-3.48537-3.55477-.94115-.94657-1.87321-2.04382-2.99318-2.80498-.60242-.81685-2.12905-.89461-2.4801.37325-4.14422,14.96485-4.88229,31.77016,2.58827,45.84458,2.72158,5.12736,6.45055,9.74948,11.02657,13.33371,4.93747,3.86741,10.63911,6.12523,16.79849,7.17301,6.78818,1.15471,13.77534,1.13653,20.45579,2.91315,7.17858,1.90905,12.76589,6.55638,18.42663,11.1398,23.31118,18.87463,45.4961,39.1321,66.40883,60.63332.4686.48179,1.42828.52759,1.87966-.01693,1.11975-1.35089,2.2395-2.70171,3.35924-4.05254,8.02306-9.6789,16.04613-19.35773,24.07022-29.03576ZM439.82483,663.09851c11.13628,9.79653,22.38316,19.46722,33.72706,29.02242-.81568.98468-1.63144,1.96921-2.44712,2.95382-7.73307,9.33446-15.46753,18.66789-23.20162,28.00146-11.25926-11.52939-22.86641-22.71866-34.82958-33.51614-10.911-9.84776-22.10349-19.39013-33.57829-28.57522-4.49914-3.60138-9.07803-6.7972-14.43748-8.68873,1.00696-.19978,2.00549-.44104,2.99024-.73814,1.92561-.58087,3.80783-1.34606,5.59705-2.26463,1.7292-.88772,3.54832-1.89593,4.86419-3.35228.99751-1.10399-.39252-2.39618-1.55676-1.83503-1.62733.78439-3.08127,1.90494-4.68837,2.73858-1.63349.84727-3.33564,1.53873-5.09299,2.08376-1.75756.54511-3.5665.94533-5.39024,1.19186-.92568.1251-1.85731.16988-2.78453.27277-.43085.04778-.88574.08084-1.33074.14613-5.2005-.80161-10.48989-1.01905-15.67332-1.95045-6.09049-1.09446-11.70623-3.44433-16.42986-7.49533-4.41919-3.78995-7.8773-8.58642-10.30814-13.86335-5.68764-12.34705-4.9256-26.50451-1.75045-39.4435.5539.57875,1.13763,1.13345,1.66801,1.69373,1.13169,1.1956,2.2543,2.39977,3.38533,3.59603,2.20542,2.33279,4.38768,4.68764,6.54604,7.06403,4.44609,4.89533,8.76069,9.89334,13.05039,14.92381.82609.96878,2.04125.29674,2.30399-.6664,3.94085-3.73374,8.16649-7.229,12.20964-10.8619,3.65913-3.28786,7.56465-6.51878,10.85552-10.18458,1.5152-1.68787.9517-3.13902-.40696-4.69944-1.6203-1.86104-3.28075-3.68911-4.94634-5.50955-3.46602-3.78841-7.02123-7.49826-10.65376-11.12712-3.17896-3.17566-6.36524-6.42343-9.73577-9.41419,13.48783-3.2126,28.29058-3.58475,40.5255,3.72978,10.11467,6.04689,17.64128,16.2119,19.3537,27.97867.56101,3.85481.6266,7.75608.81062,11.64475-.07431.63554.03716,1.31396.05768,1.94481.03254.99795.03422,1.99662-.00711,2.99435-.0834,2.01678-.30817,4.0208-.71601,5.99822-.41935,2.03341-1.00755,4.03758-1.71044,5.99046-.65614,1.82286-1.66427,3.51315-2.23583,5.35704-.23474.75727.70451,1.74356,1.3975,1.03649,1.56504-1.59706,2.50355-3.77991,3.35397-5.82739.68926-1.65965,1.22645-3.37588,1.64323-5.12274,1.60337,5.25187,4.45012,10.05267,7.80672,14.38501,4.38079,5.65429,9.60767,10.59015,14.89743,15.37856,5.57946,5.05077,11.21719,10.03867,16.86789,15.00956Z"/><path class="cls-4" d="M341.92064,658.28875h-.08894"/><path class="cls-21" d="M338.12821,561.48792c17.73033-4.55153,42.53783-4.40388,53.4953,12.8174,4.37544,6.80491,6.83032,14.78433,7.15205,22.86114.27037,4.63051-1.24995,9.48765-1.27662,13.75423-.3435,7.46688,5.25751,12.98818,9.4698,18.53216,11.71701,14.38754,25.69735,26.75251,38.95151,39.71074.14104.13466.14595.35817.01109.49904-.12848.13422-.3389.1438-.48019.02783-5.73336-4.76453-11.34261-9.67085-16.89437-14.64561-11.0865-10.03775-22.07305-20.42713-30.6605-32.78579-2.25915-3.28079-3.40921-7.38877-3.37604-11.35846.02652-3.99268,1.01755-7.65393,1.28656-11.18933.16283-2.82238-.23501-6.80252-.91173-9.94274-4.42163-19.71581-16.37304-27.75066-36.01617-29.0562-6.85949-.5007-13.78384.23371-20.59481,1.46384-.19364.04135-.38608-.08704-.42053-.28256-.03339-.18469.08462-.362.26465-.4057h0Z"/><path class="cls-21" d="M372.74945,640.00883c-11.7247,12.34696-31.79093,13.7695-45.22499,3.29993-5.47255-4.11394-9.6703-9.67137-12.61987-15.81394-.22145-.51566-1.46069-3.48867-1.70253-4.07446-.3446-1.15588-1.30722-3.90901-1.53176-5.05956-2.64619-10.76027-2.11066-22.24334,1.51104-32.7116.1601-.35996.75054-.26239.66519.20305-1.03371,4.36521-1.62023,8.99119-1.70606,13.50275-.39097,13.2955,3.23332,27.17342,12.32021,37.14695,12.17223,13.98473,33.81111,15.24123,47.80557,2.99227.14858-.12613.37154-.10819.49797.04037.11835.13904.10855.34497-.01477.47424h0Z"/><path class="cls-21" d="M425.75287,695.31144c-12.41573-11.74602-24.16509-24.05259-36.60996-35.70758-3.90922-3.48144-7.65978-7.30681-12.31141-9.77093-.00008.00011-.94179-.33436-.94179-.33436-.20297-.04908-.33442-.26425-.25964-.46552.05477-.15424.20647-.24634.3623-.23267,2.99665.4035,5.467,2.1341,7.93516,3.68867,11.75074,8.21759,21.70305,18.69415,31.33782,29.22971,3.80669,4.25386,7.5216,8.58779,11.01202,13.12063.11926.15485.09039.37701-.06445.49628-.13986.10767-.33582.09344-.46005-.02423h0Z"/><path class="cls-21" d="M337.5333,610.12745c-5.12703-4.85458-9.9757-9.98459-14.72151-15.2083-1.56297-1.75826-3.12218-3.52007-4.61183-5.34725-.0877-.10329.06583-.26389.17137-.16114,5.15293,4.82804,9.97579,9.98573,14.70674,15.22218,1.5687,1.75287,3.12445,3.51788,4.62659,5.33334.08896.10333-.06568.2653-.17136.16116h0Z"/><path class="cls-21" d="M361.96485,630.01121c-3.31067-5.15921-6.66046-10.29401-9.93158-15.47791-.10294-.16312-.05414-.37881.10898-.48175.15412-.09746.35547-.05864.46365.08286,3.40409,3.9968,7.20812,8.25378,12.15623,10.25329,1.57252.56726,3.39333.55804,4.62693-.66486,0,.00004.21168.79615.21168.79615-3.56491-.99832-6.92712-2.84333-9.35371-5.67307-.82451-.93744-1.43861-2.04074-1.96413-3.17248-.11404-.24554-.00742-.53702.23813-.65103.20145-.09357.43378-.0386.57373.11972.81274.926,1.81173,1.77796,2.8555,2.49478,3.09932,2.18789,7.11695,2.98522,10.73136,1.71921,0,.00012.11035.86797.11035.86797-4.78739-.57906-9.35635-3.48559-11.277-7.98981-.18657-.37131.38689-.67889.59192-.31478,3.30604,4.7039,8.86907,4.00987,13.08706.94836.05464-.04049.13578-.02822.17175.03137.03363.05389.01807.1246-.03433.15973-3.02993,2.28453-7.28167,3.83491-10.85052,1.81717-1.16593-.62247-2.15403-1.49911-2.94254-2.59787l.59192-.31485c1.87143,4.22363,6.28022,6.85984,10.76656,7.37319.46827.03641.5293.74802.07749.86436-1.28768.38336-2.61782.72058-3.98055.68017-1.35178.0072-2.71295-.20151-3.98489-.65326-2.56777-.88435-4.81689-2.41658-6.65095-4.43144.00001-.00002.83262-.50756.83262-.50756.4913,1.03635,1.06134,2.04218,1.81824,2.91867,2.2466,2.66114,5.49165,4.45322,8.81017,5.40097.25552.06213.411.32403.34196.57804-1.25877,1.70291-3.87752,1.75083-5.69378,1.05891-3.52054-1.33214-6.25485-3.92345-8.82553-6.54556-1.26117-1.32325-2.45871-2.69102-3.58811-4.13764l.57263-.3989c3.21887,5.21652,6.35901,10.48215,9.53833,15.72333.08187.12098-.1215.2573-.19955.12451h0Z"/></g><g id="CAR"><path class="cls-3" d="M618.67506,718.37557c-.55082-.51229-1.11967-1.00265-1.71777-1.45189-2.30083-1.72699-4.77217-2.87795-8.2655-3.84911-14.4138-4.00432-29.1894-.77168-32.00395-.08252-2.35658.57657-4.87055,1.38706-7.28505,3.39987-.69448.5789-1.33281,1.2257-1.91895,1.9264l51.19122.05725Z"/><path class="cls-7" d="M587.50666,656.95726c-41.3051.59297-82.70365,10.09032-120.33726,27.54274l251.74255,1.21326c-30.42343-14.44331-75.76673-29.56977-131.40529-28.75601Z"/><path class="cls-3" d="M749.77567,750.36716c.72769-.02842,1.54172-.09489,2.37256-.1852l-20.21609-17.72466,12.86935,17.28082c.141.18923.19258.40852.20043.62767,1.61536.05479,3.21208.0623,4.77375.00137Z"/><path class="cls-9" d="M383.17324,764.70882c-16.0058,0-29.02708,13.02128-29.02708,29.02653s13.02128,29.02653,29.02708,29.02653,29.02653-13.02128,29.02653-29.02653-13.02128-29.02653-29.02653-29.02653Z"/><path class="cls-3" d="M346.75617,838.45727c-2.56644,3.18127-3.33976,7.44081-1.95106,11.14291,1.75923,4.68801,6.1871,6.39423,7.49929,6.8063h483.42525c1.36957-.66238,5.61053-3.10312,6.44998-8.26332.58259-3.57421-.6591-7.20308-3.26051-9.6859h-492.16294Z"/><path class="cls-3" d="M444.51851,749.73812l12.86935-17.28028-20.03021,17.56207c.16375.0235.32627.05322.49057.07392,2.14405.26964,4.31037.3247,6.46951.28863.00458-.22475.05636-.45033.20078-.64434Z"/><path class="cls-3" d="M366.40286,886.19957c1.01276,7.19679,1.89538,14.51115,3.51778,21.60014,1.01754,4.44631,2.72909,8.40575,6.56153,11.11558,4.0009,2.82904,9.08493,3.52099,13.85451,3.8377,6.6168.4394,13.36798.38488,19.98778-.00956,6.09672-.3633,13.16153-1.19625,18.01336-5.28952,2.13496-1.80118,2.62881-3.00051,3.22301-5.81738,1.15684-5.48422,1.77187-11.13266,2.5359-16.6802,1.06475-7.73121,1.47628-15.62912,2.58618-23.38581.13834-.96658,1.26348-1.71688,2.17404-1.7177.17598-.0002.35298.00601.52875-.00048,12.52737-.46474,25.15809-.01305,37.69147-.0181,26.01947-.01045,52.03894-.02104,78.05841-.02268,29.95691-.00191,59.91375-.00383,89.87059-.00567,24.78141-.00157,49.56281-.00314,74.34422-.00471,10.38994-.00068,20.77982-.00212,31.16976-.00068,1.38863.0002,2.21803.99049,2.40467,2.27152,1.35707,9.31549,2.20191,18.70197,3.54579,28.0217.63239,4.38572.95558,9.01559,2.2278,13.2819.35045,1.17515.39814,1.37052,1.14727,2.39483-.03354-.04591-.04693-.03641.25126.29157.34198.37614.70958.73281,1.08832,1.07117,1.0006.89383,2.12813,1.60689,3.31755,2.22213,5.60301,2.89851,12.3352,3.2696,18.52182,3.43403,6.55177.17407,13.22452.32443,19.74342-.45914,4.3047-.51741,8.73373-1.6929,11.94341-4.7706,3.99769-3.83326,4.8051-9.23639,5.60295-14.48095,2.07778-13.65804,3.85341-27.368,5.57876-41.07584h-462.45764c.8583,8.08057,1.83499,16.15042,2.96731,24.19677Z"/><path class="cls-9" d="M443.73481,780.74358c-10.27285,0-18.63072,8.35786-18.63072,18.63072s8.35786,18.63072,18.63072,18.63072,18.63072-8.35786,18.63072-18.63072-8.35786-18.63072-18.63072-18.63072Z"/><path class="cls-8" d="M824.02629,726.81042c-11.16757-6.81293-22.99232-12.67704-34.69445-18.50427-6.56953-3.27137-13.17642-6.47477-19.82109-9.59087-6.59029-3.09068-13.27029-6.05068-19.67736-9.51053-.75481-.40763-1.06919-1.04842-1.06857-1.67507-.14367-.32695-.20201-.7158-.116-1.17637,2.92304-15.65835,5.63656-31.35783,8.19268-47.08013,4.53362-27.88486,8.65175-55.83585,11.65718-83.93085,1.5051-14.06963,2.77309-28.16946,3.72498-42.2876.95688-14.1911,1.75835-28.41772.49357-42.61585-.0304-.34137.02541-.63655.13212-.89369-.23145-.10514-.45354-.26041-.65432-.47663-1.84162-1.98276-4.69136-2.75-7.22897-3.37965-3.2931-.81711-6.5989-1.59145-9.90348-2.36067-6.66961-1.55258-13.38048-2.9033-20.08363-4.30053-23.6588-4.93141-47.51495-8.8778-71.45411-12.17042-12.1116-1.66585-24.24493-3.1702-36.38885-4.57953-6.02711-.69947-12.05688-1.37551-18.08837-2.03618-6.17727-.67665-12.44081-1.09276-18.56643-2.14159-.14045-.02405-.26383-.0662-.38721-.10814-.15699.06319-.32709.11183-.5112.14257-6.81546,1.13921-13.78681,1.59712-20.6548,2.35815-6.66681.73868-13.33143,1.49759-19.99229,2.28792-23.96464,2.84332-47.88692,6.12015-71.66267,10.27149-11.88596,2.07532-23.70395,4.46565-35.52337,6.88384-5.97553,1.22249-11.93494,2.5139-17.86942,3.92248-2.81824.66894-5.64783,1.31157-8.45166,2.03843-2.30998.59884-4.76302,1.41028-6.42532,3.20873-.01687.01831-.03587.02979-.05301.04721.00403.0994.00874.19852-.00246.3055-.75214,7.1763-.5694,14.41933-.15883,21.61086.40955,7.17349.95702,14.342,1.48714,21.5075,2.16338,29.24063,5.89164,58.35563,10.61962,87.28694,4.74956,29.06383,10.30865,58.0213,16.50101,86.81147.32067,1.49089-.77974,2.39763-1.96185,2.50325-.14571.14701-.31302.28426-.52103.39793-6.87332,3.75641-14.08938,6.89204-21.16901,10.23473-7.15075,3.3763-14.26624,6.8322-21.33084,10.38537-11.58524,5.82688-23.38704,11.61926-34.31612,18.62826-8.58262,5.5043-17.26204,12.54144-21.25399,22.22522-5.29389,12.84195-.78343,26.54877,2.76154,39.21119l5.90852,21.10486c1.96698,7.02614,4.30572,14.05877,5.78541,21.20351.02104.10145.02193.19415.03375.2917h482.11416c-.00287-.22387.01223-.45586.0621-.70138.80625-3.96893,2.04957-7.85705,3.14117-11.7563,1.09911-3.92624,2.19822-7.8524,3.29733-11.77864,2.17021-7.75212,4.34767-15.50226,6.51037-23.25642,3.38184-12.12561,6.52567-25.25366.35646-37.04808-4.94877-9.46107-13.86517-16.06599-22.7884-21.50969ZM456.49267,684.69347c40.49407-20.42547,85.77616-31.56455,130.95059-32.21327,62.07652-.87169,111.56896,17.74208,142.15307,33.52873.92033.47492,1.39471,1.51767,1.14768,2.52272-.24593,1.00176-1.14331,1.70513-2.17404,1.70513h-.01093l-271.06898-1.30617c-1.03455-.00492-1.93084-.71867-2.16803-1.7259-.23719-1.00668.24703-2.04506,1.17064-2.51124ZM563.19874,718.54902c1.10014-1.81771,2.46424-3.41135,4.05405-4.73665,2.94736-2.45659,6.02042-3.44195,8.63713-4.08192,2.95665-.72359,18.48425-4.11745,33.70034.10876,3.9218,1.0903,6.72761,2.40576,9.38258,4.4,1.71824,1.28978,3.27472,2.81128,4.62571,4.52242.27777.35141.38891.77919.3512,1.19263.00225.03566.01066.06961.01059.10589-.00109.92689-.7531,1.67726-1.6789,1.67726h-.00219l-57.64591-.06449c-.92744-.00109-1.67835-.75364-1.67726-1.68054.00014-.10186.01277-.20043.03026-.29724-.06435-.38263-.00437-.78808.21239-1.14611ZM383.17324,827.23894c-18.47441,0-33.50414-15.02972-33.50414-33.50359s15.02972-33.50359,33.50414-33.50359,33.50359,15.02972,33.50359,33.50359-15.02972,33.50359-33.50359,33.50359ZM443.73481,822.48207c-12.74146,0-23.10777-10.36631-23.10777-23.10777s10.36631-23.10777,23.10777-23.10777,23.10777,10.36631,23.10777,23.10777-10.36631,23.10777-23.10777,23.10777ZM685.13517,744.23798c-7.06467-1.28868-14.15578-.59925-21.2626-.24354-5.83631.29218-11.68116.38406-17.52375.44855-7.82788.08642-15.65658.08608-23.48473.05397-9.21432-.03778-18.49129.13929-27.70062-.29935-1.89409.07187-3.78715.11484-5.68663.13519-16.63211.17816-33.27262.3208-49.90445.04393-5.39384-.08977-10.78507-.23746-16.16969-.57582-3.74233-.23514-7.48159-.45675-11.2326-.28883-4.52214.20248-9.02652,1.05874-13.32951,2.45912-5.19169,1.68969-10.14101,3.95424-15.5401,4.97404-6.99929,1.32216-14.16643,1.98119-21.24648,2.68394-6.81088.67604-13.72984,1.41548-20.5843,1.13067-4.24923-.17652-8.41238-1.0034-12.32625-2.69125-1.85966-.80194-3.43048-2.14753-5.09127-3.29262-1.87503-1.29278-3.75395-2.58427-5.69585-3.77553-3.35219-2.05654-6.95885-3.62599-10.90237-4.03622-4.38729-.45641-9.10317.119-13.39496,1.04542-3.50467.75651-6.91356,1.96062-10.13247,3.53882-2.26613,1.11107-3.73584-2.48255-1.50708-3.59764,20.56729-10.29041,40.98853-20.86323,61.37588-31.50478,2.19105-1.14372,3.57708,2.37816,1.44929,3.52694-14.58985,7.87666-29.31489,15.50396-44.11829,22.97401,3.95534-.28364,7.84462-.19142,11.70739.96631,3.75962,1.12685,7.16769,3.20169,10.42192,5.34868,2.00257,1.3212,3.98266,2.68148,5.94882,4.0561,1.10847.77496,2.35248,1.22338,3.63248,1.6502.43612.14537.87545.28111,1.31792.40586.1382.03894.27715.07528.4159.11217l29.29549-25.68527c.43065-.37655,1.07664-.36726,1.49691.01913.42082.38857.48039,1.03182.13881,1.49089l-18.60926,24.98724c7.18135-.31411,14.34644-1.35905,21.46392-2.25882,5.26172-.66511,10.63519-1.19967,15.79539-2.47954,7.11659-1.76511,13.63871-5.16983,20.90511-6.41678,7.25568-1.2451,14.45527-.80017,21.75699-.53401,3.40787.12426,6.81737.2072,10.22729.27257-.08068-.21253-.12146-.44384-.10821-.68547.12297-2.25875.71594-6.46637,3.30423-9.27,3.00474-3.2545,7.12875-3.81468,8.6814-4.02563,7.45611-1.01317,41.95641-1.07554,86.02783-.16184.08655-.01469.17359-.02849.26424-.02944,1.46138-.03224,6.74072.25468,10.73029,4.43716,2.80035,2.93643,3.67368,7.37304,3.91852,9.14375.03149.22646.01544.44828-.03914.65637.52828-.00772,1.05669-.00765,1.58496-.01626,5.44343-.0886,10.89151-.20815,16.32941-.47834,8.60612-.42758,17.13968-.16402,25.41776,2.51295,5.22851,1.69085,10.20399,3.98246,15.62228,5.07843.41009.083.82141.15979,1.23308.23466.12727.02186.37908.06592.45402.07856.282.04755.56421.09393.84648.13936,1.49964.24163,3.00317.459,4.50766.66798,4.68118.65022,9.37329,1.23308,14.06533,1.79851,4.07339.49091,8.32507,1.0142,12.50291,1.27687l-18.56479-24.92828c-.34212-.45907-.2831-1.10232.13772-1.49089.42082-.38912,1.06789-.39622,1.49745-.01913l29.38505,25.76384c.06148.05397.09598.12392.14271.18711.18506-.03668.37778-.06736.55779-.10719.48845-.10814.97259-.23213,1.45523-.3635.07248-.01974.22004-.06251.28726-.0815.20043-.06203.40039-.12584.59939-.19231,1.20636-.40278,2.46246-.79935,3.50419-1.53072,6.9719-4.89473,14.22655-10.34615,23.08079-10.67768,1.711-.06408,3.42645-.01298,5.13848.10637-14.78598-7.46363-29.49401-15.08342-44.0706-22.9458-2.13756-1.15301-.67297-4.64244,1.51337-3.5003,20.37635,10.64414,40.79172,21.20986,61.35218,31.4948,2.23211,1.11653.73855,4.70017-1.52362,3.59102-1.41185-.69216-2.86135-1.3072-4.33694-1.84989-4.07509-1.49875-8.30048-2.30582-12.62273-2.64486-4.28461-.33611-8.42023-.24484-12.46206,1.38453-3.84255,1.54896-7.26032,3.96859-10.65193,6.30679-1.6446,1.13381-3.21358,2.49874-5.055,3.29289-1.00921.4353-2.0385.82148-3.08611,1.1539-4.32827,1.37353-8.80068,1.67616-13.322,1.6127-7.94777-.11156-15.91583-1.02595-23.8028-1.93876-5.38769-.62357-10.87607-1.1401-16.16832-2.38028-6.91089-1.61946-13.22335-4.9655-20.23399-6.24421ZM739.40956,822.48207c-12.74146,0-23.10777-10.36631-23.10777-23.10777s10.36631-23.10777,23.10777-23.10777,23.10777,10.36631,23.10777,23.10777-10.36631,23.10777-23.10777,23.10777ZM799.92633,827.23894c-18.47441,0-33.50359-15.02972-33.50359-33.50359s15.02918-33.50359,33.50359-33.50359,33.50359,15.02972,33.50359,33.50359-15.02918,33.50359-33.50359,33.50359Z"/><path class="cls-9" d="M739.40956,780.74358c-10.2734,0-18.63072,8.35786-18.63072,18.63072s8.35732,18.63072,18.63072,18.63072,18.63072-8.35786,18.63072-18.63072-8.35732-18.63072-18.63072-18.63072Z"/><path class="cls-21" d="M799.92632,764.70877c-16.00524,0-29.02654,13.02129-29.02654,29.02654s13.02129,29.02654,29.02654,29.02654,29.02654-13.02122,29.02654-29.02654-13.02129-29.02654-29.02654-29.02654Z"/><path class="cls-3" d="M646.53471,738.75151c-.1574-1.13019-.83835-4.9957-3.02332-7.28778-2.44614-2.56439-5.52671-3.21536-7.25581-3.35991-.0759.00833-.15152.01844-.22926.01523-44.46778-.93563-79.29066-.89137-86.65605.10876-1.3406.18199-4.47979.60827-6.66585,2.97632-1.87455,2.03085-2.31996,5.36678-2.41888,7.17466-.01066.19593-.05964.37962-.13089.55102,1.43617.02172,2.87228.05151,4.30839.06647,7.82788.08177,15.65658.07651,23.48466.03969,9.29234-.04379,18.62662-.40948,27.918-.17488,1.82215-.02261,3.64328-.02152,5.46925-.00191,15.0895.16156,30.18467.29396,45.27526.12044-.02254-.07767-.06408-.14558-.07549-.2281Z"/><path class="cls-3" d="M830.71872,724.94592c-4.88243-3.23155-10.00943-6.05901-15.15952-8.83552-6.33295-3.41422-12.71134-6.74434-19.13242-9.98983-7.49833-3.79002-15.05609-7.45481-22.67923-10.98722-6.76067-3.13276-13.5751-6.30939-20.62386-8.76133,4.97425-27.84101,9.9321-55.67497,13.92556-83.67768,4.01409-28.14787,7.26189-56.41721,9.11431-84.79428,1.03606-15.87149,2.23621-32.05327.18445-47.89034-.08526-.65794-.43147-1.08989-.87456-1.32899.31657-.5487.32723-1.23998-.24573-1.89361-3.55686-4.05801-9.14642-5.12263-14.1292-6.45701-5.96419-1.59719-11.94799-3.13133-17.94559-4.59811-12.05395-2.94797-24.24616-5.34287-36.4571-7.53946-24.48554-4.40457-49.14323-7.77965-73.84259-10.72851-6.83711-.81622-13.67819-1.59897-20.52166-2.3602-6.97429-.77571-14.01081-1.8546-21.02131-2.17233-.43175-.01954-.81349.08034-1.15117.24962-.32982-.16901-.70965-.26875-1.15083-.24962-6.14345.2669-12.305,1.2065-18.416,1.88562-6.12446.68062-12.24714,1.37736-18.36688,2.09917-12.30145,1.45093-24.59238,2.99716-36.85988,4.7124-24.34952,3.40452-48.64473,7.44648-72.61983,12.92912-6.75562,1.54486-13.46853,3.31366-20.16567,5.09264-3.12573.83023-6.27967,1.62766-9.35061,2.6463-2.74515.91063-5.27873,2.25233-7.20267,4.45342-.41624.47622-.52752.97915-.44008,1.43508-.12167.20009-.21102.43872-.25222.72181-1.82174,12.52696-.46345,25.4222.34635,37.98051.94397,14.63801,2.15436,29.24282,3.82247,43.8175,3.36852,29.43143,8.06527,58.72235,13.64301,87.81282,3.06199,15.96994,6.36937,31.88959,9.66171,47.81307-6.74052,2.2899-13.2681,5.23336-19.73106,8.20115-6.62718,3.04327-13.20518,6.18703-19.73509,9.43381-11.98939,5.96132-24.11999,11.95441-35.53902,18.96573-9.49625,5.83077-19.01854,13.05906-24.39167,23.07115-3.00952,5.608-4.48341,11.78288-4.46291,18.14712.02316,7.20608,1.70554,14.31194,3.57039,21.23056,2.18517,8.10701,4.44741,16.19401,6.67364,24.28982,1.1056,4.02051,2.2112,8.04102,3.3168,12.06153,1.02014,3.70961,1.93467,7.47654,3.15292,11.12911h-.16006c-.75474,0-1.47778.30496-2.00462.84601-4.66178,4.78693-6.20568,11.79654-3.93218,17.85849,2.94627,7.85124,10.74941,10.11272,11.62985,10.34445.23282.0623.47219.09291.7132.09291h7.4917c1.3378,14.85115,3.01096,29.79036,5.80249,44.43554.98332,5.15842,2.44409,10.17796,6.28199,13.96088,3.52625,3.47577,8.12512,5.29642,12.949,6.09556,6.88787,1.14099,13.97755.99302,20.93414.86971,6.76853-.12003,13.87733-.4907,20.19669-3.1426,3.63651-1.52608,7.51131-3.99906,9.20366-7.72951,1.65246-3.64266,1.90447-7.99081,2.47196-11.8917,1.45892-10.02808,2.25759-20.15174,3.63809-30.17531,9.74622.00792,19.49243.01086,29.23872.01476,24.78626.00997,49.57251.0233,74.3587.02487,29.95875.00191,59.91751.00376,89.87626.00567,26.02398.00164,52.04796.00328,78.072.00492l25.46872.00164c3.45323.0002,7.16858.36179,10.6768.13991,1.04337,7.71455,1.75595,15.47459,2.88082,23.1793.78165,5.35394,1.24462,10.89472,2.57142,16.1524.77448,3.06882,2.39469,5.39793,4.89432,7.34647,5.25044,4.09299,12.05811,5.31691,18.53016,5.8568,7.17527.59857,14.55883.60445,21.7408.15678,5.2585-.32784,10.77271-1.05334,15.37464-3.80853,4.43463-2.65504,7.39538-6.89313,8.81625-11.81348,1.08333-3.75156,1.53011-7.68941,2.08714-11.54336.70576-4.88271,1.39519-9.7678,2.06829-14.65516,1.07746-7.82262,2.11085-15.65145,3.10134-23.48555h5.68561c.3454,0,.68752-.0634,1.00996-.18909.36179-.13991,8.86995-3.53158,10.37396-12.77207.95531-5.86739-1.33787-11.83152-5.98435-15.56422-.49624-.39896-1.11489-.61647-1.75213-.61647h-.9426c2.32173-6.81724,3.93601-13.94264,5.84423-20.88195,1.98604-7.22227,3.97208-14.44447,5.95804-21.66675,3.66029-13.31121,7.73108-27.50237,2.30691-40.92957-4.24103-10.49829-13.17833-18.32316-22.4152-24.43676ZM820.31443,903.07863c-.79784,5.24457-1.60525,10.64769-5.60295,14.48095-3.20969,3.0777-7.63872,4.25319-11.94341,4.7706-6.51891.78357-13.19166.63321-19.74342.45914-6.18662-.16443-12.91881-.53552-18.52182-3.43403-1.18942-.61524-2.31695-1.32831-3.31755-2.22213-.37874-.33836-.74634-.69503-1.08832-1.07117-.29819-.32798-.2848-.33747-.25126-.29157-.74914-1.02431-.79682-1.21969-1.14727-2.39483-1.27222-4.26631-1.59542-8.89618-2.2278-13.2819-1.34388-9.31973-2.18873-18.7062-3.54579-28.0217-.18664-1.28103-1.01604-2.27132-2.40467-2.27152-10.38994-.00143-20.77982,0-31.16976.00068-24.78141.00157-49.56281.00314-74.34422.00471-29.95684.00184-59.91368.00376-89.87059.00567-26.01947.00164-52.03894.01223-78.05841.02268-12.53338.00506-25.1641-.44664-37.69147.0181-.17577.00649-.35278.00027-.52875.00048-.91056.00082-2.0357.75112-2.17404,1.7177-1.1099,7.7567-1.52143,15.6546-2.58618,23.38581-.76403,5.54754-1.37906,11.19599-2.5359,16.6802-.5942,2.81688-1.08804,4.01621-3.22301,5.81738-4.85183,4.09326-11.91664,4.92622-18.01336,5.28952-6.61981.39445-13.37098.44896-19.98778.00956-4.76958-.31671-9.85361-1.00866-13.85451-3.8377-3.83244-2.70983-5.54399-6.66927-6.56153-11.11558-1.6224-7.08899-2.50502-14.40335-3.51778-21.60014-1.13231-8.04635-2.109-16.1162-2.96731-24.19677h462.45764c-1.72535,13.70784-3.50098,27.4178-5.57876,41.07584ZM842.17963,848.14316c-.83945,5.1602-5.08041,7.60094-6.44998,8.26332h-483.42525c-1.31218-.41207-5.74005-2.11829-7.49929-6.8063-1.3887-3.7021-.61538-7.96164,1.95106-11.14291h492.16294c2.60141,2.48282,3.8431,6.11168,3.26051,9.6859ZM846.45823,785.3682c-2.1627,7.75417-4.34015,15.5043-6.51037,23.25642-1.09911,3.92624-2.19822,7.8524-3.29733,11.77864-1.0916,3.89925-2.33492,7.78737-3.14117,11.7563-.04987.24552-.06497.47752-.0621.70138h-482.11416c-.01182-.09755-.01271-.19026-.03375-.2917-1.47969-7.14473-3.81844-14.17736-5.78541-21.20351-1.96951-7.03495-3.93901-14.06991-5.90852-21.10486-3.54497-12.66242-8.05543-26.36924-2.76154-39.21119,3.99195-9.68378,12.67137-16.72092,21.25399-22.22522,10.92908-7.00899,22.73088-12.80138,34.31612-18.62826,7.0646-3.55317,14.1801-7.00906,21.33084-10.38537,7.07963-3.34269,14.29569-6.47833,21.16901-10.23473.20802-.11368.37532-.25092.52103-.39793,1.18211-.10561,2.28252-1.01235,1.96185-2.50325-6.19236-28.79017-11.75145-57.74763-16.50101-86.81147-4.72797-28.9313-8.45624-58.04631-10.61962-87.28694-.53012-7.1655-1.07759-14.33401-1.48714-21.5075-.41057-7.19153-.59331-14.43457.15883-21.61086.0112-.10698.00649-.2061.00246-.3055.01715-.01742.03614-.0289.05301-.04721,1.6623-1.79845,4.11533-2.60989,6.42532-3.20873,2.80383-.72687,5.63341-1.3695,8.45166-2.03843,5.93448-1.40858,11.89389-2.69999,17.86942-3.92248,11.81942-2.41819,23.63741-4.80852,35.52337-6.88384,23.77575-4.15133,47.69803-7.42817,71.66267-10.27149,6.66086-.79033,13.32548-1.54923,19.99229-2.28792,6.86799-.76102,13.83935-1.21893,20.6548-2.35815.18411-.03074.35421-.07938.5112-.14257.12338.04195.24675.0841.38721.10814,6.12562,1.04883,12.38917,1.46493,18.56643,2.14159,6.03148.66067,12.06126,1.33671,18.08837,2.03618,12.14392,1.40933,24.27725,2.91368,36.38885,4.57953,23.93916,3.29262,47.79531,7.23901,71.45411,12.17042,6.70315,1.39724,13.41402,2.74795,20.08363,4.30053,3.30457.76922,6.61038,1.54356,9.90348,2.36067,2.53761.62965,5.38735,1.39689,7.22897,3.37965.20078.21622.42287.37149.65432.47663-.10671.25714-.16252.55232-.13212.89369,1.26477,14.19813.46331,28.42475-.49357,42.61585-.95189,14.11814-2.21988,28.21796-3.72498,42.2876-3.00543,28.095-7.12356,56.04599-11.65718,83.93085-2.55612,15.7223-5.26964,31.42178-8.19268,47.08013-.08601.46058-.02767.84942.116,1.17637-.00061.62665.31377,1.26744,1.06857,1.67507,6.40708,3.45985,13.08707,6.41985,19.67736,9.51053,6.64467,3.1161,13.25157,6.3195,19.82109,9.59087,11.70213,5.82722,23.52688,11.69133,34.69445,18.50427,8.92323,5.4437,17.83963,12.04862,22.7884,21.50969,6.1692,11.79442,3.02537,24.92248-.35646,37.04808Z"/><path class="cls-3" d="M383.17324,760.23176c-18.47441,0-33.50414,15.02972-33.50414,33.50359s15.02972,33.50359,33.50414,33.50359,33.50359-15.02972,33.50359-33.50359-15.02972-33.50359-33.50359-33.50359ZM383.17324,822.76189c-16.0058,0-29.02708-13.02128-29.02708-29.02653s13.02128-29.02653,29.02708-29.02653,29.02653,13.02128,29.02653,29.02653-13.02128,29.02653-29.02653,29.02653Z"/><path class="cls-3" d="M799.92633,760.23176c-18.47441,0-33.50359,15.02972-33.50359,33.50359s15.02918,33.50359,33.50359,33.50359,33.50359-15.02972,33.50359-33.50359-15.02918-33.50359-33.50359-33.50359ZM799.92633,822.76189c-16.00525,0-29.02653-13.02128-29.02653-29.02653s13.02128-29.02653,29.02653-29.02653,29.02653,13.02128,29.02653,29.02653-13.02128,29.02653-29.02653,29.02653Z"/><path class="cls-8" d="M564.63334,721.6729l57.64591.06449h.00219c.9258,0,1.6778-.75037,1.6789-1.67726.00007-.03627-.00833-.07023-.01059-.10589.03771-.41344-.07344-.84122-.3512-1.19263-1.35099-1.71114-2.90746-3.23264-4.62571-4.52242-2.65497-1.99424-5.46078-3.3097-9.38258-4.4-15.21609-4.2262-30.74369-.83234-33.70034-.10876-2.61672.63997-5.68977,1.62534-8.63713,4.08192-1.58981,1.3253-2.95392,2.91894-4.05405,4.73665-.21676.35804-.27674.76348-.21239,1.14611-.01749.0968-.03013.19538-.03026.29724-.00109.92689.74982,1.67944,1.67726,1.68054ZM569.40278,716.39192c2.41451-2.01282,4.92848-2.8233,7.28505-3.39987,2.81456-.68916,17.59015-3.9218,32.00395.08252,3.49333.97116,5.96467,2.12212,8.2655,3.84911.59809.44924,1.16695.9396,1.71777,1.45189l-51.19122-.05725c.58614-.7007,1.22447-1.3475,1.91895-1.9264Z"/><path class="cls-8" d="M745.34028,754.80124c4.52132.06346,8.99373-.23917,13.322-1.6127,1.0476-.33242,2.0769-.7186,3.08611-1.1539,1.84142-.79416,3.41039-2.15908,5.055-3.29289,3.39161-2.3382,6.80938-4.75783,10.65193-6.30679,4.04182-1.62937,8.17744-1.72064,12.46206-1.38453,4.32225.33904,8.54764,1.14611,12.62273,2.64486,1.47559.54269,2.92509,1.15772,4.33694,1.84989,2.26216,1.10915,3.75572-2.47449,1.52362-3.59102-20.56046-10.28494-40.97582-20.85066-61.35218-31.4948-2.18634-1.14215-3.65093,2.34728-1.51337,3.5003,14.57659,7.86238,29.28463,15.48217,44.0706,22.9458-1.71203-.11935-3.42747-.17044-5.13848-.10637-8.85424.33153-16.10889,5.78295-23.08079,10.67768-1.04173.73137-2.29782,1.12794-3.50419,1.53072-.199.06647-.39896.13028-.59939.19231-.06722.01899-.21478.06176-.28726.0815-.48264.13137-.96679.25536-1.45523.3635-.18001.03983-.37272.0705-.55779.10719-.04673-.06319-.08123-.13314-.14271-.18711l-29.38505-25.76384c-.42956-.3771-1.07664-.36999-1.49745.01913-.42082.38857-.47984,1.03182-.13772,1.49089l18.56479,24.92828c-4.17784-.26267-8.42952-.78596-12.50291-1.27687-4.69204-.56544-9.38415-1.1483-14.06533-1.79851-1.50449-.20897-3.00802-.42635-4.50766-.66798-.28228-.04543-.56448-.09181-.84648-.13936-.07494-.01264-.32675-.0567-.45402-.07856-.41166-.07487-.82298-.15166-1.23308-.23466-5.41829-1.09597-10.39377-3.38758-15.62228-5.07843-8.27807-2.67697-16.81164-2.94053-25.41776-2.51295-5.4379.27018-10.88598.38973-16.32941.47834-.52828.00861-1.05669.00854-1.58496.01626.05458-.20809.07064-.4299.03914-.65637-.24484-1.77071-1.11817-6.20732-3.91852-9.14375-3.98956-4.18248-9.2689-4.4694-10.73029-4.43716-.09065.00096-.17769.01476-.26424.02944-44.07142-.91371-78.57172-.85133-86.02783.16184-1.55265.21096-5.67666.77113-8.6814,4.02563-2.5883,2.80362-3.18127,7.01125-3.30423,9.27-.01325.24163.02753.47294.10821.68547-3.40992-.06538-6.81942-.14831-10.22729-.27257-7.30172-.26615-14.50131-.71109-21.75699.53401-7.2664,1.24694-13.78852,4.65167-20.90511,6.41678-5.1602,1.27987-10.53368,1.81443-15.79539,2.47954-7.11748.89977-14.28257,1.94471-21.46392,2.25882l18.60926-24.98724c.34157-.45907.282-1.10232-.13881-1.49089-.42027-.38639-1.06625-.39568-1.49691-.01913l-29.29549,25.68527c-.13875-.03689-.2777-.07323-.4159-.11217-.44247-.12474-.8818-.26048-1.31792-.40586-1.28001-.42683-2.52401-.87524-3.63248-1.6502-1.96616-1.37462-3.94625-2.7349-5.94882-4.0561-3.25423-2.14699-6.6623-4.22183-10.42192-5.34868-3.86277-1.15772-7.75205-1.24995-11.70739-.96631,14.8034-7.47005,29.52844-15.09736,44.11829-22.97401,2.12779-1.14878.74176-4.67066-1.44929-3.52694-20.38735,10.64155-40.80859,21.21437-61.37588,31.50478-2.22876,1.1151-.75904,4.70871,1.50708,3.59764,3.21891-1.5782,6.6278-2.78231,10.13247-3.53882,4.29179-.92641,9.00767-1.50182,13.39496-1.04542,3.94352.41023,7.55018,1.97968,10.90237,4.03622,1.94191,1.19127,3.82083,2.48275,5.69585,3.77553,1.66079,1.14509,3.23161,2.49068,5.09127,3.29262,3.91387,1.68784,8.07702,2.51472,12.32625,2.69125,6.85447.2848,13.77342-.45463,20.5843-1.13067,7.08004-.70275,14.24718-1.36178,21.24648-2.68394,5.3991-1.0198,10.34841-3.28435,15.5401-4.97404,4.30299-1.40038,8.80737-2.25663,13.32951-2.45912,3.75101-.16792,7.49027.0537,11.2326.28883,5.38461.33836,10.77585.48606,16.16969.57582,16.63183.27688,33.27235.13424,49.90445-.04393,1.89948-.02036,3.79254-.06333,5.68663-.13519,9.20933.43865,18.4863.26158,27.70062.29935,7.82815.03211,15.65685.03245,23.48473-.05397,5.84259-.06449,11.68744-.15637,17.52375-.44855,7.10682-.35571,14.19793-1.04514,21.2626.24354,7.01063,1.27871,13.32309,4.62475,20.23399,6.24421,5.29225,1.24018,10.78063,1.75671,16.16832,2.38028,7.88697.91282,15.85503,1.82721,23.8028,1.93876ZM744.80149,749.73812l-12.86935-17.28082,20.21609,17.72466c-.83084.09031-1.64488.15678-2.37256.1852-1.56167.06094-3.15838.05342-4.77375-.00137-.00786-.21915-.05943-.43844-.20043-.62767ZM437.84822,750.09383c-.1643-.0207-.32682-.05042-.49057-.07392l20.03021-17.56207-12.86935,17.28028c-.14442.19401-.1962.41959-.20078.64434-2.15915.03607-4.32547-.01899-6.46951-.28863ZM601.33494,738.85918c-1.82598-.01961-3.6471-.0207-5.46925.00191-9.29138-.23459-18.62566.1311-27.918.17488-7.82808.03682-15.65678.04208-23.48466-.03969-1.43611-.01496-2.87221-.04475-4.30839-.06647.07125-.1714.12023-.3551.13089-.55102.09892-1.80787.54433-5.1438,2.41888-7.17466,2.18606-2.36805,5.32525-2.79433,6.66585-2.97632,7.36539-1.00012,42.18827-1.04439,86.65605-.10876.07774.00321.15337-.0069.22926-.01523,1.72911.14455,4.80968.79552,7.25581,3.35991,2.18497,2.29209,2.86593,6.15759,3.02332,7.28778.01141.08252.05294.15043.07549.2281-15.09059.17352-30.18576.04113-45.27526-.12044Z"/><line class="cls-16" x1="463.4" y1="792.47768" x2="717.02929" y2="792.47768"/><line class="cls-16" x1="465.34565" y1="803.54092" x2="718.83597" y2="803.54092"/><line class="cls-17" x1="459.5087" y1="814.60415" x2="722.58829" y2="814.60415"/><path class="cls-21" d="M417.40073,825.35162c113.82853-1.27814,235.86583-1.43337,349.74589-.00023.1744.00316.31344.14683.31051.32121-.00281.17072-.14111.3075-.31049.31055-66.71327.98422-151.61446,1.06424-218.59114.9206-25.42431.00345-61.68235-.27878-87.437-.44009.00046.00002-43.71777-.48051-43.71777-.48051-.17438-.00195-.31421-.14484-.31229-.31921.00189-.17194.14124-.3103.31229-.31232h0Z"/><path class="cls-21" d="M413.12745,770.03546c116.67677-1.27815,241.76659-1.43339,358.49622-.00023.1744.00303.3135.14671.31069.32109-.00281.17078-.14117.30768-.31067.31061-68.38267.9843-155.40776,1.06429-224.06013.92066-26.06032.00345-63.22556-.27878-89.62454-.44009.00047.00002-44.81157-.48057-44.81157-.48057-.17438-.00183-.31421-.14471-.31235-.31909.00183-.172.14124-.31042.31235-.31238h0Z"/><line class="cls-14" x1="592.06534" y1="761.3623" x2="592.06534" y2="825.03895"/><line class="cls-15" x1="456.7935" y1="782.46901" x2="743.76629" y2="782.46901"/><path class="cls-5" d="M457.49006,688.93061l271.06898,1.30617h.01093c1.03073,0,1.92811-.70337,2.17404-1.70513.24703-1.00504-.22735-2.04779-1.14768-2.52272-30.5841-15.78665-80.07655-34.40042-142.15307-33.52873-45.17443.64871-90.45652,11.78779-130.95059,32.21327-.92361.46618-1.40782,1.50456-1.17064,2.51124.23719,1.00723,1.13347,1.72098,2.16803,1.7259ZM587.50666,656.95726c55.63856-.81376,100.98187,14.3127,131.40529,28.75601l-251.74255-1.21326c37.63361-17.45243,79.03216-26.94978,120.33726-27.54274Z"/><path class="cls-3" d="M443.73481,776.26653c-12.74146,0-23.10777,10.36631-23.10777,23.10777s10.36631,23.10777,23.10777,23.10777,23.10777-10.36631,23.10777-23.10777-10.36631-23.10777-23.10777-23.10777ZM443.73481,818.00501c-10.27285,0-18.63072-8.35786-18.63072-18.63072s8.35786-18.63072,18.63072-18.63072,18.63072,8.35786,18.63072,18.63072-8.35786,18.63072-18.63072,18.63072Z"/><path class="cls-3" d="M739.40956,776.26653c-12.74146,0-23.10777,10.36631-23.10777,23.10777s10.36631,23.10777,23.10777,23.10777,23.10777-10.36631,23.10777-23.10777-10.36631-23.10777-23.10777-23.10777ZM739.40956,818.00501c-10.2734,0-18.63072-8.35786-18.63072-18.63072s8.35732-18.63072,18.63072-18.63072,18.63072,8.35786,18.63072,18.63072-8.35732,18.63072-18.63072,18.63072Z"/><polygon class="cls-20" points="398.45885 711.17812 361.16304 732.29725 385.62577 732.25919 373.90651 728.47971 398.45885 711.17812"/><polygon class="cls-20" points="791.5849 714.74691 829.2474 735.20495 804.78781 735.59836 816.43858 731.61277 791.5849 714.74691"/><path class="cls-8" d="M383.25779,751.81634c1.08912.32627,2.33271-.36109,3.39856-.61224,1.33295-.31409,2.69141-.53695,4.04375-.74944,2.84107-.44641,5.75373-.50581,8.61846-.27279,2.35921.1919,4.79167.72473,6.97413,1.65071,1.10425.46851,2.16667,1.06468,3.16149,1.73317,1.15702.77748,2.33907,1.52179,3.78542,1.16483.75085-.18531,1.13137-.86595,1.20102-1.57747.28376-2.8987-3.90883-4.59995-6.05617-5.49783-2.73499-1.1436-5.64664-1.78509-8.61244-1.87012-3.10248-.08896-6.21747.50994-9.14065,1.53159-1.39647.48807-2.73992,1.07818-4.05127,1.76178-1.11088.5791-2.93809,1.16322-3.47908,2.35246-.07037.15468-.01809.33297.15678.38536h0Z"/><path class="cls-8" d="M398.16886,720.46248c6.09701-3.02356,12.13902-6.16283,18.27045-9.11549,2.98739-1.43861,5.93387-2.96267,8.91445-4.41598,3.10588-1.51441,6.44319-2.86983,9.3736-4.70088,1.39465-.87144.38179-2.79421-1.13492-2.24857-3.16021,1.13691-6.20863,2.93119-9.17355,4.50048-3.00951,1.5929-6.03514,3.17369-8.97579,4.8912-5.91026,3.45193-11.76123,6.93335-17.44764,10.74571-.19946.13373-.05547.45703.17339.34353h0Z"/><path class="cls-8" d="M801.35027,751.54175c-.51655-1.13552-2.20209-1.67731-3.2558-2.23408-1.30718-.6907-2.64017-1.29654-4.03296-1.79386-2.99783-1.07044-6.19138-1.70938-9.38224-1.61789-2.85393.08183-5.68903.6698-8.33172,1.75166-2.19343.89794-6.62835,2.63892-6.33689,5.61629.06946.70955.45788,1.39406,1.20102,1.57747,1.34133.33104,2.51798-.28972,3.59979-1.03669.98764-.68194,2.04207-1.28465,3.14126-1.76831,2.23894-.98517,4.74604-1.54573,7.18-1.74372,2.7776-.22594,5.60618-.18084,8.36401.2324,1.35358.20282,2.71362.431,4.049.73224,1.11987.25262,2.50811,1.01124,3.64776.66983.17486-.05238.22714-.23067.15678-.38536h0Z"/><path class="cls-8" d="M790.00122,722.74232c-5.56993-3.9805-11.31438-7.63522-17.11883-11.26214-2.81213-1.75717-5.70991-3.38487-8.5919-5.02419-2.99259-1.70223-6.06176-3.64232-9.26877-4.9055-1.49779-.58995-2.57159,1.29961-1.20159,2.21366,2.80062,1.86854,6.00952,3.29003,8.9909,4.85378,3.01599,1.5819,5.994,3.23685,9.01663,4.80535,6.04049,3.13451,11.98602,6.45289,17.98998,9.65724.22508.12013.37918-.19841.18358-.3382h0Z"/><path class="cls-8" d="M472.68397,671.17459c9.51913-7.49587,20.56517-12.64247,31.95092-16.56669,11.46081-3.69748,23.37929-6.22667,35.49149-5.97264.0969-.00788.2017.06418.19393.17162-.0021.08047-.06113.14605-.1375.15944-23.38844,4.15905-46.15477,11.76958-67.34495,22.50659-.08188.04176-.18203.00917-.2237-.07267-.03867-.08592-.00879-.17678.06982-.22564h0Z"/><path class="cls-8" d="M716.22483,671.47299c-11.49918-3.34709-22.39298-7.48281-33.71175-11.13591-11.24831-3.89551-22.44882-7.15271-33.66352-11.38233-.17433-.05982-.10944-.36057.08682-.31943,11.73734,1.94961,23.33057,4.79563,34.6403,8.51921,11.27776,3.81997,22.25008,8.52315,32.80207,14.02007.08143.04242.11306.14285.07064.22428-.04828.08273-.13845.1089-.22455.07412h0Z"/><path class="cls-3" d="M438.31334,470.77926c22.17197-6.55912,44.77473-10.66092,67.52444-14.37023,22.80106-3.37536,45.58096-6.3381,68.69544-6.85441.13077-.01536.25647.0827.25672.21826-33.68281,6.0288-102.41312,16.173-136.40764,21.44899-.12171.01831-.23538-.06527-.25393-.18694-.01602-.12405.06477-.23169.18496-.25567h0Z"/><path class="cls-3" d="M609.13764,449.55468c23.11643.49733,45.89568,3.46654,68.69544,6.85435,22.74714,3.72158,45.34858,7.82969,67.52447,14.37017.12925.02515.21909.15682.17814.28599-33.92034-4.50445-102.47879-15.75145-136.46701-21.0679-.12156-.01957-.20436-.13379-.18503-.25532.02247-.12304.13219-.20099.25399-.18728h0Z"/><path class="cls-3" d="M383.17317,768.62127c-13.84831,0-25.11449,11.26619-25.11449,25.11408s11.26619,25.11408,25.11449,25.11408,25.11408-11.26619,25.11408-25.11408-11.26619-25.11408-25.11408-25.11408ZM383.17317,815.49346c-11.99785,0-21.75852-9.76067-21.75852-21.75811s9.76067-21.75811,21.75852-21.75811,21.75811,9.76067,21.75811,21.75811-9.76067,21.75811-21.75811,21.75811Z"/><path class="cls-3" d="M799.92653,768.62127c-13.84831,0-25.11449,11.26619-25.11449,25.11408s11.26619,25.11408,25.11449,25.11408,25.11408-11.26619,25.11408-25.11408-11.26619-25.11408-25.11408-25.11408ZM799.92653,815.49346c-11.99785,0-21.75852-9.76067-21.75852-21.75811s9.76067-21.75811,21.75852-21.75811,21.75811,9.76067,21.75811,21.75811-9.76067,21.75811-21.75811,21.75811Z"/><path class="cls-3" d="M443.73481,783.17754c-8.93078,0-16.19676,7.26598-16.19676,16.19676s7.26598,16.19676,16.19676,16.19676,16.19676-7.26598,16.19676-16.19676-7.26598-16.19676-16.19676-16.19676ZM443.73481,812.43299c-7.20047,0-13.05869-5.85821-13.05869-13.05869s5.85821-13.05869,13.05869-13.05869,13.05869,5.85821,13.05869,13.05869-5.85821,13.05869-13.05869,13.05869Z"/><path class="cls-3" d="M739.40956,783.17754c-8.93078,0-16.19676,7.26598-16.19676,16.19676s7.26598,16.19676,16.19676,16.19676,16.19676-7.26598,16.19676-16.19676-7.26598-16.19676-16.19676-16.19676ZM739.40956,812.43299c-7.20047,0-13.05869-5.85821-13.05869-13.05869s5.85821-13.05869,13.05869-13.05869,13.05869,5.85821,13.05869,13.05869-5.85821,13.05869-13.05869,13.05869Z"/><path class="cls-21" d="M506.57529,759.91601c56.48318-1.29848,113.96191-1.4593,170.4397-.00024.17437.00616.31091.15234.30499.32672-.00568.16681-.14075.29907-.30499.30499-34.96138,1.01317-71.5252,1.09994-106.52485.92064-12.39409.00347-30.05695-.27877-42.61015-.44006-7.10139-.16038-14.20301-.25963-21.3047-.48057-.17438-.00537-.31134-.15118-.30591-.32556.00519-.16742.14081-.30042.30591-.30591h0Z"/><path class="cls-3" d="M365.43593,790.17945c4.32552,12.51502,10.68634,18.25653,24.07623,15.26037,3.70914-.74239,7.44512-1.90736,11.39782-2.9288-2.9739,2.7901-6.43447,5.01414-10.29659,6.58886-14.43482,6.08047-27.15911-3.47645-25.17746-18.92044h0Z"/><path class="cls-3" d="M819.01572,790.17946c1.97863,15.45995-10.75085,24.99564-25.17748,18.92023-3.8621-1.57458-7.32271-3.79855-10.29664-6.58865,3.95274,1.02137,7.68872,2.18634,11.39799,2.92905,13.39483,3.0018,19.75998-2.76421,24.07613-15.26063h0Z"/><path class="cls-3" d="M434.86627,798.94351c3.27161,10.02411,9.26267,8.68513,17.73712,6.16553-1.48689,1.39504-3.21695,2.50959-5.15045,3.28776-7.10325,3.12054-13.65973-1.85854-12.58666-9.45328h0Z"/><path class="cls-3" d="M748.27811,798.94349c1.07123,7.60206-5.48615,12.57136-12.58672,9.4531-1.93345-.77798-3.66351-1.89253-5.15037-3.28731,1.97654.51096,3.84467,1.09091,5.69695,1.47146,6.56627,1.55347,10.02749-1.5346,12.04015-7.63725h0Z"/><path class="cls-19" d="M350.26721,839.3288c-.25574.25643-3.21305,3.31955-2.40891,7.31929.71864,3.57445,4.13285,6.36281,8.29215,6.48557"/><path class="cls-21" d="M350.26722,839.32879c-1.87451,4.08308-1.68528,8.54892,1.91791,11.43992,1.07199.94088,2.38104,1.67397,3.96533,2.36495-8.46753,2.44376-13.8847-9.4591-5.88324-13.80487h0Z"/><path class="cls-19" d="M835.47698,839.98147c.25574.25643,3.21305,3.31955,2.40891,7.31929-.71864,3.57445-4.13285,6.36281-8.29215,6.48557"/><path class="cls-21" d="M835.47697,839.9815c8.00605,4.35097,2.57698,16.24943-5.88334,13.80481,1.58439-.69098,2.89341-1.42407,3.96568-2.36487,3.60341-2.89215,3.79186-7.35595,1.91766-11.43994h0Z"/><path class="cls-12" d="M554.76959,726.00826c.19543-1.07995.99848-1.97219,1.93998-2.53616s2.01965-.84824,3.08147-1.12579"/><path class="cls-6" d="M632.41914,722.1526c1.16692.21621,2.25314.84488,3.02193,1.749"/><path class="cls-10" d="M576.31102,703.7753c1.35353-.63828,2.81239-1.05252,4.29938-1.2208"/></g><g id="BATTERY"><path class="cls-3" d="M669.5384,885.96684c0-.06805.60009-7.7287.60009-7.79675,0-.08211-.00009-9.03951-.00009-9.12162-1.40122-.99243-7.64465-5.19092-16.75114-4.76481-7.4715.34961-12.47023,3.60651-14.09574,4.76481v8.98536c0,2.81338-.6,5.11962-.6,7.933h30.84688Z"/><path class="cls-18" d="M658.64709,866.66265c3.20976.14103,7.29579.35416,9.23858,3.38763.79829,2.49755.77188,5.12055.96649,7.7086.00604.13694-.20644.16756-.23363.02888-.46159-1.75447-.80294-3.54849-1.12445-5.32383-.21589-.92183-.2956-2.08976-1.04974-2.69521-2.06302-1.81869-5.15416-2.26721-7.82041-2.87205-.1342-.02148-.11757-.23877.02316-.23401h0Z"/><path class="cls-3" d="M549.23786,885.28941c0-.06805.60009-7.7287.60009-7.79675,0-.08211-.00009-9.03951-.00009-9.12162-1.40122-.99243-7.64465-5.19092-16.75114-4.76481-7.4715.34961-12.47023,3.60651-14.09574,4.76481v8.98536c0,2.81338-.6,5.11962-.6,7.933h30.84688Z"/><path class="cls-3" d="M673.55967,881.16263l-159.94993-.59751h-31.79916v109.14375h220.92607v-108.54624h-29.17697"/><path class="cls-3" d="M702.73695,991.54613h-220.92654c-1.01524,0-1.83784-.8232-1.83784-1.83784v-109.14352c0-1.01464.8226-1.83784,1.83784-1.83784h31.79913l159.95045.59826h29.17697c1.01464,0,1.83784.8232,1.83784,1.83784v108.54526c0,1.01464-.8232,1.83784-1.83784,1.83784ZM483.64825,987.87045h217.25086v-104.86957h-27.3463l-159.94985-.59826h-29.9547v105.46783Z"/><polygon class="cls-19" points="524.09675 895.78368 660.36141 895.78368 660.36141 949.97433 524.73878 949.97433 524.09675 895.78368"/><path class="cls-21" d="M523.92944,895.61834c22.71618-.16107,80.26508-.56416,102.20861-.65256,0-.00002,34.22327-.09426,34.22327-.09426.50244-.0014.91089.40479.91229.90723.00341.00303.07297,54.1916.07545,54.1955.00088.54569-.44205.98859-.98774.98779,0,0-67.81122-.07812-67.81122-.07812-16.8825-.04728-50.92773-.15581-67.81126-.25572-.35702.00109-.64785-.29042-.65389-.64619-.2452-15.79461-.00343-38.36619-.15552-54.36365h0ZM524.26404,895.94903c.45374,15.89722.77211,38.37699,1.12893,54.01742-.00033.00003-.65408-.64602-.65408-.64602l33.90558-.15723c21.52955-.09146,79.45568-.15692,101.71687-.17655,0-.00002-.98762.98759-.98762.98759l.0755-54.19043.91211.91205c-37.94897-.07499-97.71258-.44937-136.09729-.74683h0Z"/><text class="cls-11" transform="translate(547.42407 935.13726)"><tspan x="0" y="0">GEO</tspan></text><path class="cls-21" d="M496.39458,982.55551c63.24178-1.18411,130.37752-1.29709,193.677-.00024.15915.00458.28471.13717.28037.29631-.00419.1536-.12863.27595-.28036.28036-46.32774,1.05445-98.94596,1.03249-145.25772.6956-14.14048-.14471-34.44737-.34958-48.41894-.69561-.15949-.00395-.28528-.13624-.28131-.29537.00381-.15413.12863-.27692.28096-.28103h0Z"/><g id="_Grid_Repeat_"><path class="cls-2" d="M542.19508,982.63146l.49715-19.92433c.00106-.13979.22979-.15049.23093.00002,0-.00002.49715,19.92431.49715,19.92431.01536.81501-1.23938.82556-1.22523,0h0Z"/></g><g id="_Grid_Repeat_-2"><path class="cls-2" d="M555.67331,982.42187l-.49715-26.70968c-.00106-.18739-.22979-.20174-.23093.00003,0-.00003-.49715,26.70964-.49715,26.70964-.01536,1.09257,1.23938,1.10671,1.22523,0h0Z"/></g><g id="_Grid_Repeat_-3"><path class="cls-2" d="M566.70018,982.63146l.49715-19.92433c.00106-.13979.22979-.15049.23093.00002,0-.00002.49715,19.92431.49715,19.92431.01536.81501-1.23938.82556-1.22523,0h0Z"/></g><g id="_Grid_Repeat_-4"><path class="cls-2" d="M580.17799,982.63146l-.49715-19.92433c-.00106-.13979-.22979-.15049-.23093.00002,0-.00002-.49715,19.92431-.49715,19.92431-.01536.81501,1.23938.82556,1.22523,0h0Z"/></g><g id="_Grid_Repeat_-5"><path class="cls-2" d="M591.20529,982.63146l.49715-19.92433c.00106-.13979.22979-.15049.23093.00002,0-.00002.49715,19.92431.49715,19.92431.01536.81501-1.23938.82556-1.22523,0h0Z"/></g><g id="_Grid_Repeat_-6"><path class="cls-2" d="M604.68382,982.72906l-.49715-16.76451c-.00106-.11762-.22979-.12662-.23093.00002,0-.00002-.49715,16.76449-.49715,16.76449-.01536.68576,1.23938.69464,1.22523,0h0Z"/></g><g id="_Grid_Repeat_-7"><path class="cls-2" d="M615.71039,982.63146l.49715-19.92433c.00106-.13979.22979-.15049.23093.00002,0-.00002.49715,19.92431.49715,19.92431.01536.81501-1.23938.82556-1.22523,0h0Z"/></g><g id="_Grid_Repeat_-8"><path class="cls-2" d="M629.18836,982.6347l-.49715-19.81927c-.00106-.13905-.22979-.1497-.23093.00002,0-.00002-.49715,19.81924-.49715,19.81924-.01536.81071,1.23938.82121,1.22523,0h0Z"/></g><g id="_Grid_Repeat_-9"><path class="cls-2" d="M640.21549,982.63146l.49715-19.92433c.00106-.13979.22979-.15049.23093.00002,0-.00002.49715,19.92431.49715,19.92431.01536.81501-1.23938.82556-1.22523,0h0Z"/></g><path class="cls-2" d="M652.23913,982.27305l.49715-26.64492c.00027-.13852.23059-.15321.23093.00003,0-.00003.49715,26.64489.49715,26.64489.0111.80787-1.23485.82216-1.22523,0h0Z"/><path class="cls-2" d="M661.74681,981.68764l.44407-24.55123c-.00017-.10361.20635-.11731.20627.00003,0-.00003.44407,24.5512.44407,24.5512.00809.60771-1.10085.62129-1.09442,0h0Z"/><path class="cls-2" d="M672.78228,982.27305l.49715-51.64868c-.00349-.14118.23436-.15132.23085.00003,0-.00003.49723,51.64865.49723,51.64865.00598.7912-1.22827.82227-1.22523,0h0Z"/><path class="cls-2" d="M683.94545,981.61549c.11619-.11542.27692-75.07087.61306-75.04245.33475-.10159.49568,74.98223.61242,75.04228.00491.77857-1.22618.82812-1.22548.00016h0Z"/><path class="cls-2" d="M531.64617,981.87152l.49723-15.48542c.00015-.08053.23069-.08895.23085.00002,0-.00002.49715,15.4854.49715,15.4854.01124.46956-1.23481.47783-1.22523,0h0Z"/><path class="cls-2" d="M522.27382,981.01555l.44047-25.32556c-.00017-.10692.20473-.12094.20453.00003,0-.00003.44053,25.32553.44053,25.32553.00796.62692-1.09189.64092-1.08553,0h0Z"/><path class="cls-2" d="M511.10309,981.61549l.49715-51.64868c-.00346-.1411.2343-.15133.23093.00003,0-.00003.49715,51.64865.49715,51.64865.00599.79138-1.2283.82219-1.22523,0h0Z"/><path class="cls-2" d="M499.93985,981.61549c.11619-.11542.277-75.07094.61313-75.04245.3345-.1015.4957,74.98226.61234,75.04228.0049.77865-1.2262.82804-1.22548.00016h0Z"/><path class="cls-18" d="M537.67383,865.59441c3.20973.14112,7.29579.35418,9.23858,3.38763.7983,2.49766.77189,5.12059.96649,7.70866.00596.13697-.20639.16748-.23363.02888-.46159-1.75457-.80294-3.54849-1.12445-5.32383-.2159-.92184-.29561-2.08984-1.04974-2.69527-2.06312-1.81862-5.15415-2.26721-7.82047-2.87199-.13414-.02162-.11746-.23878.02322-.23407h0Z"/><path class="cls-18" d="M526.43671,899.6787c21.47301-.16394,75.81856-.57312,96.55932-.66508,0-.00002,32.34345-.08749,32.34345-.08749.50729-.00152.91941.41063.91785.91791,0,0,.06995,46.06995.06995,46.06995.0009.54578-.44202.98868-.98779.98779-37.77628-.07199-90.89288-.0678-128.12851-.35247-.34858.00362-.63516-.27837-.63558-.62696,0,0-.13867-46.24365-.13867-46.24365h0ZM526.77155,900.00915s1.07446,45.89648,1.07446,45.89648l-.63519-.62689c37.03937-.21534,90.5439-.35156,128.12886-.35221-.0002-.00015-.98781.98746-.98781.98746l.06995-46.06995s.91766.91766.91766.91766c-35.85804-.05474-92.30133-.45831-128.56793-.75256h0Z"/></g><g id="name"><path class="cls-21" d="M543.81503,534.42057h-2.81445v-5.23242h12.32764c0,3.0127-.21143,5.25195-.63428,6.71875-.40967,1.41406-1.26855,2.84717-2.57617,4.30078-1.28174,1.44043-2.83447,2.49072-4.65771,3.15088-1.82324.66064-3.77881.99121-5.86621.99121-3.10547,0-5.92627-.51514-8.46289-1.5459-2.55029-1.00391-4.51855-2.66895-5.90625-4.99463-1.40039-2.28564-2.10059-4.84863-2.10059-7.68945,0-4.29395,1.41357-7.75586,4.24121-10.38525,2.80078-2.62891,6.23633-3.94385,10.30566-3.94385,3.396,0,6.05811.82568,7.9873,2.47705v-1.92236h6.63916v9.63232h-6.63916c-.58154-1.18945-1.33789-2.0874-2.26953-2.69531-.93115-.60791-2.01807-.91211-3.25977-.91211-1.74414,0-3.02588.56836-3.84521,1.70459-.80615,1.13672-1.20898,3.22412-1.20898,6.2627,0,3.02588.42285,5.08057,1.26855,6.16406.85889,1.09668,2.10742,1.64502,3.74561,1.64502,2.48389,0,3.72607-1.24219,3.72607-3.72607Z"/><path class="cls-21" d="M583.55234,543.91373h-26.2998v-6.59961h2.14014v-14.36865h-2.17969v-6.6001h26.33936v8.81982h-7.23389v-2.21973h-6.26318v4.24121h5.45068v5.6084h-5.45068v4.51904h6.26318v-2.21973h7.23389v8.81934Z"/><path class="cls-21" d="M587.87265,530.06022c0-2.29883.56152-4.52539,1.68457-6.6792,1.11035-2.14014,2.83398-3.94385,5.17285-5.41016.83203-.51562,1.6875-.9248,2.56641-1.229.87891-.30371,1.83301-.53809,2.86426-.70361,1.03027-.16504,2.11328-.24756,3.25-.24756,4.94141,0,8.7666,1.44678,11.47559,4.34033,1.34766,1.42676,2.36426,2.97266,3.05176,4.6377.68652,1.66455,1.03027,3.42871,1.03027,5.2915,0,3.84473-1.40039,7.18799-4.20117,10.02832-2.80176,2.84082-6.58691,4.26123-11.35645,4.26123-4.61133,0-8.35059-1.33447-11.21777-4.00342-2.87988-2.65576-4.32031-6.08447-4.32031-10.28613ZM599.84335,530.06022c0,3.06543.29688,5.1333.8916,6.20361.56836,1.0835,1.45996,1.625,2.67578,1.625,1.20215,0,2.10059-.52197,2.69531-1.56592.59473-1.05664.8916-3.14404.8916-6.2627,0-3.02539-.29004-5.08643-.87207-6.18359-.56738-1.08301-1.47266-1.625-2.71484-1.625-1.18945,0-2.08105.52197-2.67578,1.56543-.59473,1.04395-.8916,3.125-.8916,6.24316Z"/><path class="cls-21" d="M624.0621,531.56657v-3.88477c1.05664,0,1.86328-.1582,2.41797-.47559.55469-.33008.89844-.70654,1.03027-1.12939.14551-.43604.22461-1.2749.23828-2.51709h-3.68652v-7.21436h9.88965v6.16406c0,2.20654-.0791,3.71924-.23828,4.53857-.1582.83203-.62109,1.63818-1.38672,2.41748-.75293.79297-1.68457,1.34131-2.79492,1.64502-1.10938.3042-2.93262.45605-5.46973.45605Z"/><path class="cls-21" d="M645.09042,543.91373h-6.2041v-8.83936h6.2041c.73926,2.40479,2.13281,3.60693,4.18164,3.60693,1.47949,0,2.21973-.59424,2.21973-1.78369,0-.62061-.25781-1.13623-.77344-1.5459-.55469-.44873-1.72363-1.06982-3.50781-1.86279-2.24609-1.01709-3.89746-1.896-4.95508-2.63574-.99023-.67383-1.83594-1.60547-2.53613-2.79443-.70117-1.17627-1.05078-2.47754-1.05078-3.90479,0-2.56299.83301-4.56445,2.49707-6.00488,1.65137-1.43994,3.68652-2.16016,6.10449-2.16016s4.46582.68701,6.14355,2.06104v-1.70459h6.24316v7.84863h-6.16309c-.75391-2.16699-2.08789-3.25049-4.00391-3.25049-1.34766,0-2.02148.57471-2.02148,1.72412,0,.55518.19141.97119.5752,1.24854.36914.29102,1.56543.93164,3.58691,1.92285,2.70801,1.34766,4.51855,2.33203,5.43066,2.95264.46191.3042.93457.73047,1.41699,1.27832.48145.54883.88184,1.11328,1.19824,1.69482.72656,1.29492,1.09082,2.69531,1.09082,4.20166,0,2.31201-.85938,4.26758-2.57715,5.86621-1.71777,1.625-3.88379,2.43799-6.5,2.43799-2.43164,0-4.63184-.72021-6.59961-2.16064v1.80371Z"/><path class="cls-21" d="M446.95957,592.62077h-10.91992v-6.59961h2.10059l5.17285-14.36865h-2.21973v-6.6001h19.81885v6.6001h-2.21973l5.27197,14.36865h2.02148v6.59961h-14.38867v-6.04492h2.41797l-1.05029-3.46826h-7.05566l-1.20898,3.46826h2.25928v6.04492ZM449.55576,572.0485l-2.59619,7.63037h4.93506l-2.33887-7.63037Z"/><path class="cls-21" d="M469.5333,571.6525h-2.12061v-6.6001h14.11133v6.6001h-1.30811v9.29492c0,2.21973.21143,3.73291.63428,4.53857.42285.79248,1.18213,1.18896,2.2793,1.18896.91162,0,1.57227-.33691,1.98193-1.01074.40918-.66064.61426-2.01465.61426-4.06299v-9.94873h-1.38721v-6.6001h10.36523v6.6001h-2.18018v9.98877c0,2.5498-.37012,4.63721-1.10986,6.2627-.74023,1.61182-1.96875,2.87354-3.68652,3.78516s-3.83154,1.36768-6.3418,1.36768c-2.02148,0-3.81201-.24463-5.37109-.7334-1.58545-.47559-2.84082-1.20215-3.76562-2.18018-.9248-.96436-1.60547-2.1333-2.0415-3.50781-.44922-1.33447-.67383-3.38232-.67383-6.14404v-8.83887Z"/><path class="cls-21" d="M518.8038,592.62077h-15.479v-6.59961h2.37842v-14.36865h-3.1709v5.01416h-5.17285v-11.61426h27.33057v11.61426h-5.17285v-5.01416h-3.15137v14.36865h2.43799v6.59961Z"/><path class="cls-21" d="M526.85019,578.76725c0-2.29883.56152-4.52539,1.68457-6.6792,1.10986-2.14014,2.83398-3.94385,5.17285-5.41016.83252-.51562,1.6875-.9248,2.56641-1.229.87891-.30371,1.8335-.53809,2.86377-.70361,1.03076-.16504,2.11426-.24756,3.25049-.24756,4.94141,0,8.7666,1.44678,11.4751,4.34033,1.34766,1.42676,2.36523,2.97266,3.05225,4.6377.68701,1.66455,1.03076,3.42871,1.03076,5.2915,0,3.84473-1.40088,7.18799-4.20166,10.02832-2.80127,2.84082-6.58691,4.26123-11.35645,4.26123-4.61133,0-8.35059-1.33447-11.21729-4.00342-2.88086-2.65576-4.3208-6.08447-4.3208-10.28613ZM538.82089,578.76725c0,3.06543.29736,5.1333.89209,6.20361.56787,1.0835,1.45947,1.625,2.67529,1.625,1.20215,0,2.10107-.52197,2.69531-1.56592.59473-1.05664.89209-3.14404.89209-6.2627,0-3.02539-.29102-5.08643-.87207-6.18359-.56836-1.08301-1.47363-1.625-2.71533-1.625-1.18896,0-2.08105.52197-2.67529,1.56543-.59473,1.04395-.89209,3.125-.89209,6.24316Z"/><path class="cls-21" d="M572.39414,592.62077h-10.68262v-6.59961h2.12109v-14.36865h-2.18018v-6.6001h16.62793l4.06299,10.64307,4.16211-10.64307h16.5293v6.6001h-2.16113v14.36865h2.21973v6.59961h-14.3877v-6.59961h2.19922v-15.39941l-8.32373,21.99902h-4.12256l-8.24463-21.80078v15.20117h2.18018v6.59961Z"/><path class="cls-21" d="M606.77988,578.76725c0-2.29883.56152-4.52539,1.68457-6.6792,1.11035-2.14014,2.83398-3.94385,5.17285-5.41016.83203-.51562,1.6875-.9248,2.56641-1.229.87891-.30371,1.83301-.53809,2.86426-.70361,1.03027-.16504,2.11328-.24756,3.25-.24756,4.94141,0,8.7666,1.44678,11.47559,4.34033,1.34766,1.42676,2.36426,2.97266,3.05176,4.6377.68652,1.66455,1.03027,3.42871,1.03027,5.2915,0,3.84473-1.40039,7.18799-4.20117,10.02832-2.80176,2.84082-6.58691,4.26123-11.35645,4.26123-4.61133,0-8.35059-1.33447-11.21777-4.00342-2.87988-2.65576-4.32031-6.08447-4.32031-10.28613ZM618.75058,578.76725c0,3.06543.29688,5.1333.8916,6.20361.56836,1.0835,1.45996,1.625,2.67578,1.625,1.20215,0,2.10059-.52197,2.69531-1.56592.59473-1.05664.8916-3.14404.8916-6.2627,0-3.02539-.29004-5.08643-.87207-6.18359-.56738-1.08301-1.47266-1.625-2.71484-1.625-1.18945,0-2.08105.52197-2.67578,1.56543-.59473,1.04395-.8916,3.125-.8916,6.24316Z"/><path class="cls-21" d="M661.04453,592.62077h-15.47852v-6.59961h2.37793v-14.36865h-3.1709v5.01416h-5.17285v-11.61426h27.33008v11.61426h-5.17285v-5.01416h-3.15039v14.36865h2.4375v6.59961Z"/><path class="cls-21" d="M685.64023,592.62077h-15.7168v-6.59961h2.53711v-14.36865h-2.53711v-6.6001h15.7168v6.6001h-2.51758v14.36865h2.51758v6.59961Z"/><path class="cls-21" d="M706.86582,592.85856h-8.58203l-8.79883-21.20605h-2.04199v-6.6001h14.8252v6.6001h-2.33887l4.10254,11.75244,4.30078-11.75244h-2.25977v-6.6001h11.11914v6.6001h-2.04199l-8.28418,21.20605Z"/><path class="cls-21" d="M745.67148,592.62077h-26.2998v-6.59961h2.14062v-14.36865h-2.17969v-6.6001h26.33887v8.81982h-7.2334v-2.21973h-6.2627v4.24121h5.4502v5.6084h-5.4502v4.51904h6.2627v-2.21973h7.2334v8.81934Z"/></g></svg>